<?xml version="1.0" encoding="UTF-8"?>
<svg viewBox="0 0 248 24" version="1.1" xmlns="http://www.w3.org/2000/svg" xmlns:xlink="http://www.w3.org/1999/xlink">
    <!-- Generator: Sketch 55.2 (78181) - https://sketchapp.com -->
    <title>Card networks/Acceptance Marks</title>
    <desc>Created with Sketch.</desc>
    <defs>
        <path d="M27.2074468,7 L27.2074468,0 L0,0 L0,10 L24.2074468,10 C25.8643011,10 27.2074468,8.65685425 27.2074468,7 Z" id="path-1"></path>
        <path d="M16.1830131,0.265889338 C14.7531804,0.265889338 13.5923482,1.46110733 13.5923482,2.93269706 C13.5923482,4.49999994 14.7029521,5.67009324 16.1830131,5.67009324 C17.62624,5.67009324 18.7669809,4.48444655 18.7669809,2.96380384 C18.7669809,1.45392885 17.6340533,0.265889338 16.1830131,0.265889338" id="path-3"></path>
        <radialGradient cx="0%" cy="0%" fx="0%" fy="0%" r="183.535905%" gradientTransform="translate(0.000000,0.000000),scale(0.649770,1.000000),rotate(33.014586),scale(1.000000,1.606518),translate(-0.000000,-0.000000)" id="radialGradient-5">
            <stop stop-color="#FFFFFF" offset="0%"></stop>
            <stop stop-color="#F3F3F3" offset="100%"></stop>
        </radialGradient>
        <rect id="path-6" x="0" y="0" width="36.9361702" height="24" rx="5.47297297"></rect>
        <radialGradient cx="21.0261418%" cy="16.5389623%" fx="21.0261418%" fy="16.5389623%" r="89.4505449%" gradientTransform="translate(0.210261,0.165390),scale(0.649770,1.000000),rotate(48.587402),scale(1.000000,1.092475),translate(-0.210261,-0.165390)" id="radialGradient-8">
            <stop stop-color="#65BCF2" offset="0%"></stop>
            <stop stop-color="#004FC5" offset="100%"></stop>
        </radialGradient>
        <path d="M0,2.00728323e-13 L0,24 L36.9361702,24 L36.9361702,12.1538462 L36.9361702,2.00728323e-13 L0,2.00728323e-13 Z" id="path-9"></path>
        <polygon id="path-11" points="0.00631831431 3.07692308 23.2545239 3.07692308 23.2545239 0.0158681319 0.00631831431 0.0158681319"></polygon>
        <polygon id="path-13" points="0 19.9159121 24.7818328 19.9159121 24.7818328 8.79120879e-05 0 8.79120879e-05"></polygon>
    </defs>
    <g id="iFrame" stroke="none" stroke-width="1" fill="none" fill-rule="evenodd">
        <g id="Self-Service---3-Checkout" transform="translate(-354.000000, -295.000000)">
            <g id="Card-networks/Acceptance-Marks-Small" transform="translate(354.000000, 295.000000)">
                <g id="Card-networks/Acceptance-Marks">
                    <g id="img-fi-discover" transform="translate(168.851064, 0.000000)">
                        <rect id="Rectangle-2" fill="#FFFFFF" x="0" y="0" width="36.9361702" height="24" rx="11.25"></rect>
                        <g id="Page-1" transform="translate(9.150030, 13.000000)">
                            <mask id="mask-2" fill="white">
                                <use xlink:href="#path-1"></use>
                            </mask>
                            <g id="Clip-2"></g>
                            <path d="M27.2074468,0 C27.2074468,0 17.5986106,6.90821061 0,10 L27.2074468,10 L27.2074468,0 Z" id="Fill-1" fill="#F4811F" mask="url(#mask-2)"></path>
                        </g>
                        <rect id="Rectangle-4" stroke="#979797" x="0.5" y="0.5" width="35.9361702" height="23" rx="5.625"></rect>
                        <g id="Group-2" transform="translate(3.341844, 7.058824)">
                            <g id="Text">
                                <path d="M1.47839454,0.365191734 L0.0865120921,0.365191734 L0.0865120921,5.55284462 L1.47058124,5.55284462 C2.20726321,5.55284462 2.73745099,5.36740039 3.20401624,4.95463742 C3.7576439,4.46530392 4.08580223,3.7247234 4.08580223,2.96141101 C4.08580223,1.43000056 3.01426482,0.365191734 1.47839454,0.365191734 L1.47839454,0.365191734 Z M2.58676604,4.26191347 C2.28651233,4.55024935 1.90142858,4.67467644 1.28864312,4.67467644 L1.03415299,4.67467644 L1.03415299,1.2421635 L1.28864312,1.2421635 C1.90142858,1.2421635 2.27200193,1.35941211 2.58676604,1.66210496 C2.91380819,1.97436912 3.10914053,2.45652413 3.10914053,2.95423252 C3.10914053,3.45313733 2.91380819,3.95204214 2.58676604,4.26191347 L2.58676604,4.26191347 Z" id="Fill-10" fill="#001722"></path>
                                <polygon id="Fill-12" fill="#001722" points="4.52223049 0.365191734 5.4687552 0.365191734 5.4687552 5.55284462 4.52223049 5.55284462"></polygon>
                                <path d="M7.78595484,2.3548289 C7.2167006,2.12990299 7.04927288,1.9815476 7.04927288,1.70278305 C7.04927288,1.3749655 7.34729422,1.1261113 7.75693404,1.1261113 C8.04044498,1.1261113 8.2737276,1.2505384 8.52152063,1.54485634 L9.01599049,0.854525228 C8.60969923,0.471672617 8.12081028,0.277853482 7.58839013,0.277853482 C6.73004402,0.277853482 6.07372736,0.915542363 6.07372736,1.76260377 C6.07372736,2.479256 6.379562,2.84535881 7.2680451,3.18872975 C7.63973463,3.32751382 7.82948605,3.42083414 7.92436176,3.48424411 C8.11299699,3.6170461 8.20898888,3.80249034 8.20898888,4.02023776 C8.20898888,4.44137563 7.89422477,4.75244338 7.47119073,4.75244338 C7.02025207,4.75244338 6.65637583,4.51076767 6.43760361,4.05971944 L5.82705052,4.69022983 C6.26236259,5.37457888 6.78696945,5.67846814 7.50914101,5.67846814 C8.49249982,5.67846814 9.18341821,4.97736929 9.18341821,3.97477401 C9.18341821,3.14924807 8.86418936,2.77596677 7.78595484,2.3548289" id="Fill-13" fill="#001722"></path>
                                <path d="M9.48255574,2.96141101 C9.48255574,4.4880358 10.6032053,5.67009324 12.0464322,5.67009324 C12.4538397,5.67009324 12.8032055,5.5839514 13.2329367,5.36740039 L13.2329367,4.17696805 C12.85455,4.58135612 12.5185784,4.74406848 12.0888472,4.74406848 C11.1356254,4.74406848 10.4581013,4.00468437 10.4581013,2.95423252 C10.4581013,1.95881573 11.1568329,1.17277146 12.0464322,1.17277146 C12.4973709,1.17277146 12.8400396,1.34385872 13.2329367,1.75662169 L13.2329367,0.564992941 C12.8188321,0.340067031 12.4761634,0.247943122 12.0687559,0.247943122 C10.6333423,0.247943122 9.48255574,1.45392885 9.48255574,2.96141101" id="Fill-14" fill="#001722"></path>
                                <polyline id="Fill-15" fill="#001722" points="20.9100557 3.85034691 19.613049 0.365191734 18.5794619 0.365191734 20.6410552 5.68564662 21.1500355 5.68564662 23.2473467 0.365191734 22.2215729 0.365191734 20.9100557 3.85034691"></polyline>
                                <polyline id="Fill-16" fill="#001722" points="23.678194 5.55284462 26.365967 5.55284462 26.365967 4.67467644 24.6247187 4.67467644 24.6247187 3.27367517 26.2989959 3.27367517 26.2989959 2.39431058 24.6247187 2.39431058 24.6247187 1.2421635 26.365967 1.2421635 26.365967 0.365191734 23.678194 0.365191734 23.678194 5.55284462"></polyline>
                                <path d="M30.1152318,1.89540577 C30.1152318,0.923917264 29.4901683,0.365191734 28.3974234,0.365191734 L26.9910305,0.365191734 L26.9910305,5.55284462 L27.9386714,5.55284462 L27.9386714,3.4674943 L28.0625679,3.4674943 L29.3729689,5.55284462 L30.5382658,5.55284462 L29.0079764,3.36699549 C29.7234509,3.21146162 30.1152318,2.68982494 30.1152318,1.89540577 L30.1152318,1.89540577 Z M28.2143691,2.7532349 L27.9386714,2.7532349 L27.9386714,1.17994995 L28.2299956,1.17994995 C28.8204574,1.17994995 29.1419186,1.44555395 29.1419186,1.95044083 C29.1419186,2.4708811 28.8204574,2.7532349 28.2143691,2.7532349 L28.2143691,2.7532349 Z" id="Fill-17" fill="#001722"></path>
                                <path d="M30.8019243,0.760174791 C30.8019243,0.662477385 30.7415549,0.610456688 30.6314695,0.610456688 L30.4846889,0.610456688 L30.4846889,1.09513733 L30.5924069,1.09513733 L30.5924069,0.907355299 L30.7190643,1.09513733 L30.8540077,1.09513733 L30.7024923,0.894667325 C30.7664129,0.87690416 30.8019243,0.826152261 30.8019243,0.760174791 L30.8019243,0.760174791 Z M30.6113463,0.824883463 L30.5924069,0.824883463 L30.5924069,0.698003715 L30.6137138,0.698003715 C30.6669809,0.698003715 30.6930226,0.720842069 30.6930226,0.761443589 C30.6930226,0.803313906 30.6657972,0.824883463 30.6113463,0.824883463 L30.6113463,0.824883463 Z" id="Fill-18" fill="#231F20"></path>
                                <path d="M30.6431872,0.438173013 C30.436693,0.438173013 30.2692653,0.61643876 30.2692653,0.837775427 C30.2692653,1.06030851 30.4378092,1.23737784 30.6431872,1.23737784 C30.8463328,1.23737784 31.0115282,1.05791568 31.0115282,0.837775427 C31.0115282,0.618831589 30.8463328,0.438173013 30.6431872,0.438173013 L30.6431872,0.438173013 Z M30.6431872,1.16559298 C30.4757595,1.16559298 30.3429335,1.01963042 30.3429335,0.838971841 C30.3429335,0.655920436 30.4757595,0.511154292 30.6431872,0.511154292 C30.8039178,0.511154292 30.9367438,0.659509679 30.9367438,0.838971841 C30.9367438,1.018434 30.8039178,1.16559298 30.6431872,1.16559298 L30.6431872,1.16559298 Z" id="Fill-19" fill="#231F20"></path>
                            </g>
                            <mask id="mask-4" fill="white">
                                <use xlink:href="#path-3"></use>
                            </mask>
                            <use id="Clip-8" fill="#F58220" xlink:href="#path-3"></use>
                        </g>
                    </g>
                    <g id="img-fi-amex" transform="translate(126.638298, 0.000000)">
                        <mask id="mask-7" fill="white">
                            <use xlink:href="#path-6"></use>
                        </mask>
                        <use id="Mask" fill="url(#radialGradient-5)" xlink:href="#path-6"></use>
                        <g id="img-fi-amex-small" mask="url(#mask-7)">
                            <g transform="translate(0.000000, -0.388889)">
                                <mask id="mask-10" fill="white">
                                    <use xlink:href="#path-9"></use>
                                </mask>
                                <use id="Card-Bg-(bank-brand-color)" stroke="none" fill="url(#radialGradient-8)" fill-rule="evenodd" xlink:href="#path-9"></use>
                                <g id="Logo" stroke="none" stroke-width="1" fill="none" fill-rule="evenodd" mask="url(#mask-10)">
                                    <g transform="translate(-0.989362, 5.333333)">
                                        <path d="M9.64339704,5.98639456 L10.1661834,5.98639456 L10.3149764,5.64284545 L10.3159818,5.98639456 L18.8213132,5.98639456 L18.8213132,4.41059448 L19.1078403,4.41059448 C19.1440332,4.41059448 19.1762047,4.41162307 19.2043547,4.41162307 C19.2053601,4.45276667 19.2043547,4.49391028 19.2043547,4.52682516 L19.2033493,4.61734109 L19.2134029,5.98639456 L23.5072883,5.98639456 L23.5072883,5.51838605 C24.0833587,5.90205017 24.7921363,5.98639456 25.2113707,5.98639456 L26.9436031,5.98639456 L27.3226232,5.01849125 L28.3531155,5.01849125 L28.7482213,5.98639456 L32.1543753,5.98639456 L32.1533699,4.86523132 L32.8159011,5.98639456 L35.5112667,5.98639456 L35.5112667,0 L32.866169,0 L32.866169,0.889730463 L32.3413719,0 L29.5364222,0 L29.5364222,0.912359445 L29.1553914,0 L25.2857672,0 C24.5428074,0 23.9596996,0.16046006 23.5072883,0.47623723 L23.5072883,0 L20.8642013,0 L20.8642013,0.272576385 C20.3886668,0.0298291138 19.8900091,0 19.3380674,0 L9.93595632,0 L9.21813047,1.73317437 L8.43797241,0 L5.46010106,0 L5.46010106,0.928816888 L5.07102739,0 L2.50133151,0 L0,5.98639456 L2.85823372,5.98639456 L3.25032346,5.01849125 L4.28584254,5.01849125 L4.67391085,5.98639456 L8.08006485,5.98639456 L8.08006485,5.64078827 L8.2308686,5.98639456 L9.64339704,5.98639456 L9.64339704,5.98639456 Z M23.5072883,1.65808729 C23.5746473,1.54391379 23.6490439,1.43385464 23.7455583,1.33099563 C24.0743104,0.983332164 24.5870432,0.822872104 25.2857672,0.822872104 L26.2659916,0.822872104 L26.2659916,1.75271758 L25.3078851,1.75271758 C24.9379132,1.75271758 24.7257826,1.81031863 24.5237056,2.0108937 C24.3538,2.19501134 24.2341624,2.53958903 24.2341624,2.99525446 C24.2341624,3.46120579 24.3216286,3.79446899 24.5146574,4.01458728 C24.6674718,4.18430465 24.9519882,4.23779134 25.2194136,4.23779134 L25.6758462,4.23779134 L27.1044604,0.822872104 L28.6245622,0.822872104 L30.3407089,4.9290039 L30.3407089,0.822872104 L31.8879553,0.822872104 L33.6704556,3.8458985 L33.6704556,0.822872104 L34.7079854,0.822872104 L34.7079854,5.16455104 L33.270323,5.16455104 L31.3480779,1.90906328 L31.3500886,5.16455104 L29.2840773,5.16455104 L28.8889714,4.19561914 L26.7787243,4.19561914 L26.3997042,5.16455104 L25.2113707,5.16455104 C24.7167344,5.16455104 24.0924069,5.05140613 23.7415368,4.68625663 C23.3816185,4.31390701 23.1986433,3.81812656 23.1986433,3.02611216 C23.1986433,2.52416018 23.2720345,2.05923744 23.5072883,1.65808729 L23.5072883,1.65808729 Z M21.668488,3.32028894 L21.668488,0.822872104 L22.7030017,0.822872104 L22.7030017,5.16455104 L21.668488,5.16455104 L21.668488,3.32028894 L21.668488,3.32028894 Z M17.0046307,0.822872104 L19.3380674,0.822872104 C19.8538162,0.822872104 20.2378631,0.839329546 20.5656099,1.03270449 C20.8873245,1.22505085 21.079348,1.50894172 21.079348,1.99546485 C21.079348,2.29787035 20.9848443,2.52827454 20.8642013,2.71033499 C20.7113868,2.94176777 20.5123259,3.09091334 20.3655436,3.15160016 C20.5867224,3.23800173 20.7757298,3.38817589 20.8642013,3.51777825 C21.0079675,3.72966781 21.0351122,3.92715712 21.0351122,4.30979265 L21.0351122,5.16455104 L20.0116574,5.16455104 L20.007636,4.61734109 C20.007636,4.35916497 20.0337753,3.98167239 19.844768,3.77492578 C19.6969803,3.62063726 19.4737907,3.58772237 19.1078403,3.58772237 L18.0170265,3.58772237 L18.0170265,5.16455104 L17.0046307,5.16455104 L17.0046307,0.822872104 L17.0046307,0.822872104 Z M12.9128223,0.822872104 L16.3008799,0.822872104 L16.3008799,1.7300886 L13.9282342,1.7300886 L13.9282342,2.50975992 L16.2425691,2.50975992 L16.2425691,3.40154756 L13.9282342,3.39846179 L13.9282342,4.26556327 L16.3008799,4.26556327 L16.3008799,5.16455104 L12.9128223,5.16455104 L12.9128223,0.822872104 L12.9128223,0.822872104 Z M7.27577819,1.7609463 L7.27577819,5.16455104 L5.21378827,5.16455104 L4.82571996,4.19561914 L2.71245676,4.19561914 L2.32137237,5.16455104 L1.21849429,5.16455104 L3.03216071,0.822872104 L4.54120355,0.822872104 L6.26438772,4.93517544 L6.26438772,0.822872104 L7.92322895,0.822872104 L9.24829122,3.76978283 L10.4687962,0.822872104 L12.1577982,0.822872104 L12.1577982,5.16455104 L11.1192631,5.16455104 L11.1132309,1.76814643 L9.64339704,5.16455104 L8.75365493,5.16455104 L7.27577819,1.7609463 L7.27577819,1.7609463 Z" id="Fill-1" fill="#FFFFFF"></path>
                                        <polyline id="Fill-2" fill="#FFFFFF" points="2.95927223 3.15646259 4.35820092 3.15646259 3.6567062 1.52380952 2.95927223 3.15646259"></polyline>
                                        <path d="M19.8550285,2.41997279 C19.9889145,2.35243537 20.0692462,2.21736054 20.0692462,2.04527891 C20.0692462,1.87967347 19.9868548,1.75847619 19.8539986,1.70019048 C19.7293815,1.63820408 19.5409111,1.63265306 19.3575901,1.63265306 L18.0784631,1.63265306 L18.0784631,2.49953741 L19.3411119,2.49953741 C19.5450307,2.49953741 19.7139331,2.49306122 19.8550285,2.41997279" id="Fill-3" fill="#FFFFFF"></path>
                                        <polyline id="Fill-4" fill="#FFFFFF" points="27.8126333 1.52380952 27.1176946 3.15646259 28.5166233 3.15646259 27.8126333 1.52380952"></polyline>
                                        <polyline id="Fill-5" fill="#FFFFFF" points="16.8409492 12.1360544 16.8409492 8.59863946 15.3344106 10.3375461 16.8409492 12.1360544"></polyline>
                                        <path d="M19.0574961,8.97959184 L17.7018284,8.97959184 L17.7018284,10.1768707 L19.0472025,10.1768707 C19.445565,10.1768707 19.6926115,9.96466646 19.6926115,9.55701086 C19.6926115,9.14377094 19.4332127,8.97959184 19.0574961,8.97959184" id="Fill-6" fill="#FFFFFF"></path>
                                        <polyline id="Fill-7" fill="#FFFFFF" points="10.3305503 8.97959184 10.3305503 9.73900383 12.5290425 9.73900383 12.5290425 10.5937146 10.3305503 10.5937146 10.3305503 11.4285714 12.7920675 11.4285714 13.9354819 10.1996145 12.8397098 8.97959184 10.3305503 8.97959184"></polyline>
                                        <path d="M37.9379764,9.91547426 L38.0520997,9.91547426 L38.0520997,7.34693878 L35.2250462,7.34693878 C34.7505337,7.34693878 34.3651174,7.45901658 34.0457725,7.6327886 L34.0457725,7.34693878 L31.2197201,7.34693878 C30.7712357,7.34693878 30.4018367,7.44667774 30.0925026,7.60296973 L30.0925026,7.34693878 L25.1181298,7.34693878 L25.1181298,7.61119563 C24.6316043,7.37675764 24.1520864,7.34693878 23.6245166,7.34693878 L20.4931344,7.34693878 L20.4931344,7.62867565 C20.1487625,7.45696011 19.7012791,7.34693878 19.1166477,7.34693878 L15.5407854,7.34693878 L14.6157863,8.37003438 L13.7218208,7.34693878 L8.50118203,7.34693878 L8.50118203,13.3333333 L13.6517451,13.3333333 L13.8900024,13.0690765 L14.5827507,12.2989271 L15.4787184,13.3333333 L18.5990887,13.3333333 L18.5990887,11.87735 L19.058585,11.87735 C19.675251,11.87735 20.1357484,11.7591028 20.4931344,11.5801896 L20.4931344,13.3333333 L23.1079587,13.3333333 L23.1079587,11.746764 L23.3882614,11.746764 C23.4283047,11.746764 23.4623414,11.7477922 23.4913728,11.7488204 C23.4923739,11.7961193 23.4913728,11.8444465 23.4913728,11.8804348 L23.4913728,11.9668066 L23.4913728,13.3333333 L31.8624142,13.3333333 C32.3429332,13.3333333 32.7523755,13.2397638 33.0987496,13.0793588 L33.0987496,13.3333333 L35.8687414,13.3333333 C37.3633557,13.3333333 38.2553191,12.5128004 38.2553191,11.139076 C38.2553191,10.6444941 38.1532089,10.2475947 37.9379764,9.91547426 L37.9379764,9.91547426 Z M20.228849,10.7997579 C20.1988165,10.8172379 20.1647798,10.8316332 20.1327452,10.8470568 C20.0616684,10.8830451 19.9875884,10.9138922 19.909504,10.9395981 C19.8704619,10.9509087 19.8324208,10.9622193 19.7923775,10.9725017 C19.7102889,10.9930664 19.626198,11.00849 19.5401051,11.0198006 C19.503065,11.0249418 19.4680272,11.0321394 19.4299861,11.0362524 C19.3078542,11.047563 19.1837201,11.0547606 19.058585,11.0547606 L17.7982237,11.0547606 L17.7982237,12.5107439 L15.8381066,12.5107439 L14.5937626,11.0753254 L13.3013667,12.5107439 L9.30204704,12.5107439 L9.30204704,8.1695282 L13.3644348,8.1695282 L14.6057755,9.59055144 L15.8901628,8.1695282 L19.1166477,8.1695282 C19.2297699,8.1695282 19.3458953,8.17569762 19.4610196,8.18700823 C19.4950564,8.19009294 19.527091,8.19626236 19.5611278,8.20140354 C19.6442175,8.21271415 19.7263062,8.2281377 19.8063927,8.2476742 C19.8434327,8.25692833 19.8784705,8.2672107 19.9145094,8.2785213 C19.9945959,8.30319898 20.069677,8.33610256 20.1437571,8.37311909 C20.1717873,8.38648616 20.2008187,8.39779677 20.2268468,8.41424856 C20.3249528,8.47182982 20.4150501,8.53866521 20.4931344,8.62400886 C20.6923496,8.83993859 20.8174847,9.15252257 20.8174847,9.60083381 C20.8174847,10.2249735 20.5792274,10.5899976 20.228849,10.7997579 L20.228849,10.7997579 Z M25.1361493,10.8583674 C25.2793039,11.0712124 25.3023288,11.2686339 25.3043309,11.6521662 L25.3043309,12.5107439 L24.2922378,12.5107439 L24.2922378,11.9668066 C24.2922378,11.7056345 24.3152626,11.3210739 24.1280605,11.1195395 C23.9809015,10.9601628 23.7556582,10.9241745 23.3882614,10.9241745 L22.3070936,10.9241745 L22.3070936,12.5107439 L21.2950005,12.5107439 L21.2950005,8.1695282 L23.6245166,8.1695282 C24.1370702,8.1695282 24.5104735,8.19112118 24.8408303,8.37723203 C24.9499482,8.44406742 25.0390444,8.52632637 25.1181298,8.61886768 C25.2652888,8.79366793 25.3573882,9.01679531 25.3573882,9.3406899 C25.3573882,10.0306368 24.9089038,10.3843502 24.6416151,10.4923151 C24.750733,10.5334446 24.8468368,10.5899976 24.9289255,10.6516918 C25.0190228,10.7185272 25.0921017,10.791532 25.1361493,10.8583674 L25.1361493,10.8583674 Z M29.2916376,8.32684843 L29.2916376,9.06923539 L26.9260826,9.06923539 L26.9260826,9.85583653 L29.2325738,9.85583653 L29.2325738,10.7411484 L26.9260826,10.7411484 L26.9260826,11.6058955 L29.2916376,11.6100085 L29.2916376,12.5107439 L25.9189948,12.5107439 L25.9189948,8.1695282 L29.2916376,8.1695282 L29.2916376,8.32684843 L29.2916376,8.32684843 Z M33.0987496,12.0891668 L33.0987496,12.0891668 C33.0436901,12.1467481 32.9796209,12.1950752 32.9105463,12.2403176 C32.8134414,12.3050965 32.7083279,12.3626778 32.5871971,12.4038073 C32.5381441,12.4192308 32.4830846,12.4295132 32.4300273,12.441852 C32.2608446,12.4829815 32.0756446,12.5107439 31.8624142,12.5107439 L29.8932874,12.5107439 L29.8932874,11.5791614 L31.8544056,11.5791614 C32.0486154,11.5791614 32.1817592,11.5534555 32.2668511,11.4711965 C32.3359257,11.4074458 32.3869808,11.3107916 32.3869808,11.1894596 C32.3869808,11.0629865 32.3339235,10.9601628 32.2618457,10.9025816 C32.1847624,10.8336897 32.0796489,10.8059273 31.9034586,10.8038708 C31.748291,10.7987297 31.5861158,10.7935885 31.4239407,10.7874191 C31.4049201,10.7863908 31.3858996,10.7853626 31.3658779,10.7843343 C31.0185027,10.7668543 30.6781351,10.7205837 30.3988334,10.5879411 L30.3978324,10.5879411 C30.2566799,10.5200775 30.1335469,10.4285644 30.0334388,10.3062042 C29.8772701,10.1128957 29.7761609,9.84761063 29.7761609,9.45996537 C29.7761609,9.0723201 29.9243209,8.67130775 30.2867123,8.42144622 C30.2877134,8.42041798 30.2877134,8.41938974 30.2887145,8.41938974 C30.356788,8.37311909 30.4328702,8.33404609 30.5149589,8.29908604 C30.5239686,8.29497309 30.5319773,8.28983191 30.540987,8.28571896 C30.6180702,8.25487186 30.7061654,8.23327888 30.7962627,8.21374238 C30.8152832,8.21065767 30.8313005,8.20346002 30.8503211,8.19934707 C30.9634433,8.17981057 31.0855752,8.1695282 31.2197201,8.1695282 L33.2449075,8.1695282 L33.2449075,9.09288484 L31.3929071,9.09288484 C31.2077071,9.09288484 31.0885784,9.10111073 30.9864681,9.17103083 C30.8773503,9.24197917 30.836306,9.34788756 30.836306,9.48567129 C30.836306,9.64710446 30.9304076,9.75918227 31.0565438,9.8075094 C31.1626584,9.84555416 31.2757806,9.85583653 31.4479666,9.857893 L31.9935559,9.87228832 C32.1216943,9.87537303 32.2388208,9.88462716 32.3469376,9.89799424 C32.4460446,9.91033308 32.5341398,9.92884134 32.6182306,9.94940608 C32.6242371,9.95043431 32.6312446,9.95146255 32.6372511,9.95351902 C32.8504814,10.0080156 33.0216663,10.092331 33.1447993,10.2198324 C33.3450156,10.4316491 33.448127,10.695906 33.448127,11.139076 C33.448127,11.5596249 33.3179864,11.8650112 33.0987496,12.0891668 L33.0987496,12.0891668 Z M35.8687414,12.5107439 L33.8996146,12.5107439 L33.8996146,11.5791614 L35.8607328,11.5791614 C36.0549425,11.5791614 36.1870853,11.5534555 36.2731783,11.4711965 C36.3422529,11.4074458 36.3923069,11.3107916 36.3923069,11.1894596 C36.3923069,11.0629865 36.3402507,10.9601628 36.2681729,10.9025816 C36.1910896,10.8336897 36.0859761,10.8059273 35.9097858,10.8038708 C35.7636279,10.7987297 35.6114635,10.7946167 35.4592992,10.7884473 C35.4462851,10.7884473 35.4332711,10.7874191 35.420257,10.7863908 C35.2650894,10.7791932 35.1129251,10.7658261 34.963764,10.7452613 C34.9607607,10.7452613 34.9587586,10.7442331 34.9567564,10.7442331 C34.3190676,10.6537483 33.7824881,10.383322 33.7824881,9.45996537 C33.7824881,9.17925673 33.8655778,8.8934069 34.0457725,8.66102539 C34.0988298,8.59316176 34.1608968,8.53043931 34.2319736,8.47285805 C34.2379801,8.46874511 34.2429855,8.46360392 34.2479909,8.45949098 C34.3130612,8.40910737 34.3861401,8.36592143 34.4672277,8.32787667 C34.483245,8.31965077 34.4972601,8.31039664 34.5132774,8.30319898 C34.5893596,8.27029541 34.6744515,8.24561772 34.7645488,8.22505299 C34.7905769,8.21888357 34.8126007,8.20962944 34.8396299,8.20448825 C34.9567564,8.18289528 35.0848948,8.1695282 35.2250462,8.1695282 L37.2512346,8.1695282 L37.2512346,9.09288484 L35.3992343,9.09288484 C35.2140343,9.09288484 35.0949056,9.10111073 34.9927953,9.17103083 C34.8836775,9.24197917 34.8426331,9.34788756 34.8426331,9.48567129 C34.8426331,9.64710446 34.9357337,9.75918227 35.062871,9.8075094 C35.1689856,9.84555416 35.2821078,9.85583653 35.4542938,9.857893 L35.9998831,9.87228832 C36.5494767,9.88771187 36.92288,9.98436613 37.1511265,10.2198324 C37.3503417,10.4316491 37.4544541,10.695906 37.4544541,11.139076 C37.4544541,12.0747715 36.88584,12.5107439 35.8687414,12.5107439 L35.8687414,12.5107439 Z" id="Fill-8" fill="#FFFFFF"></path>
                                        <path d="M24.1582831,9.04805442 C24.0356624,8.98236735 23.8481249,8.97959184 23.6636786,8.97959184 L22.382859,8.97959184 L22.382859,9.85572789 L23.6471918,9.85572789 C23.8481249,9.85572789 24.0212364,9.84832653 24.1582831,9.77616327 C24.2932689,9.70214966 24.3736422,9.56614966 24.3736422,9.40054422 C24.3736422,9.23308844 24.2932689,9.11281633 24.1582831,9.04805442" id="Fill-9" fill="#FFFFFF"></path>
                                        <path d="M20.3920759,2.95472109 C20.5256198,2.90013605 20.7067272,2.76598639 20.8457592,2.55782313 C20.7067272,2.76598639 20.5256198,2.90013605 20.3920759,2.95472109" id="Fill-10" fill="#2584BA"></path>
                                        <path d="M19.3863,10.8843537 C19.2747085,10.8945306 19.1612877,10.9010068 19.0469522,10.9010068 C19.1612877,10.9010068 19.2747085,10.8945306 19.3863,10.8843537" id="Fill-11" fill="#2584BA"></path>
                                        <path d="M19.1007571,8.16326531 C19.2041164,8.16326531 19.3102198,8.16881633 19.4154084,8.1789932 C19.3102198,8.16881633 19.2041164,8.16326531 19.1007571,8.16326531" id="Fill-12" fill="#2584BA"></path>
                                        <path d="M19.869307,10.8843537 C19.7943029,10.9028571 19.7174694,10.9167347 19.6388066,10.9269116 C19.7174694,10.9167347 19.7943029,10.9028571 19.869307,10.8843537" id="Fill-13" fill="#2584BA"></path>
                                        <path d="M20.1118059,10.7755102 C20.0468633,10.8078912 19.9791767,10.8356463 19.9078313,10.8587755 C19.9791767,10.8356463 20.0468633,10.8078912 20.1118059,10.7755102" id="Fill-14" fill="#2584BA"></path>
                                        <path d="M19.9078313,8.16326531 C19.9810061,8.18639456 20.0505221,8.21507483 20.117294,8.24838095 C20.0496074,8.21507483 19.9810061,8.18546939 19.9078313,8.16326531" id="Fill-15" fill="#2584BA"></path>
                                        <path d="M19.6388066,8.16326531 C19.7147254,8.17344218 19.7897295,8.18731973 19.8629042,8.20489796 C19.7897295,8.18731973 19.7147254,8.17344218 19.6388066,8.16326531" id="Fill-16" fill="#2584BA"></path>
                                        <path d="M20.284466,8.32653061 C20.374105,8.37834014 20.4573413,8.43847619 20.527772,8.51526531 C20.4564266,8.43847619 20.374105,8.37834014 20.284466,8.32653061" id="Fill-17" fill="#2584BA"></path>
                                        <path d="M33.0467848,11.9183673 C32.9964772,11.9692517 32.936108,12.0127347 32.8748242,12.0543673 C32.9379374,12.0136599 32.9964772,11.9701769 33.0467848,11.9183673" id="Fill-18" fill="#2584BA"></path>
                                        <path d="M30.8302361,8.19009524 C30.9335954,8.17251701 31.0451869,8.16326531 31.1677546,8.16326531 C31.0451869,8.16326531 30.9335954,8.17251701 30.8302361,8.19009524" id="Fill-19" fill="#2584BA"></path>
                                        <path d="M32.641795,12.244898 C32.5978901,12.2597007 32.5457531,12.267102 32.4981895,12.2791293 C32.5466678,12.2680272 32.5969754,12.2587755 32.641795,12.244898" id="Fill-20" fill="#2584BA"></path>
                                        <path d="M30.2383817,8.43477551 C30.2996655,8.39314286 30.3700962,8.35798639 30.4451003,8.32653061 C30.3700962,8.35798639 30.3005802,8.39314286 30.2383817,8.43477551" id="Fill-21" fill="#2584BA"></path>
                                        <path d="M31.8602243,10.6814694 C31.7184482,10.6768435 31.5702694,10.6731429 31.4220906,10.6666667 C31.5702694,10.6722177 31.7184482,10.6768435 31.8602243,10.6814694" id="Fill-22" fill="#2584BA"></path>
                                        <path d="M31.3909913,10.6801088 C31.0745106,10.6625306 30.7607739,10.6236735 30.5074064,10.5034014 C30.7626033,10.6227483 31.0735959,10.664381 31.3909913,10.6801088" id="Fill-23" fill="#2584BA"></path>
                                        <path d="M30.6150163,8.22802721 C30.685447,8.20027211 30.7659392,8.18084354 30.8482608,8.16326531 C30.7659392,8.18084354 30.685447,8.20027211 30.6150163,8.22802721" id="Fill-24" fill="#2584BA"></path>
                                        <path d="M32.3367747,9.79591837 C32.4264137,9.80702041 32.5087353,9.8227483 32.5846541,9.84217687 C32.5078206,9.82367347 32.4273284,9.80702041 32.3367747,9.79591837" id="Fill-25" fill="#2584BA"></path>
                                        <path d="M30.3561069,10.4303673 C30.2271364,10.368381 30.1146303,10.286966 30.0231619,10.1768707 C30.1146303,10.286966 30.2271364,10.3693061 30.3561069,10.4303673" id="Fill-26" fill="#2584BA"></path>
                                        <path d="M36.0304845,10.6805442 C35.8969406,10.6759184 35.7579086,10.6731429 35.6188766,10.6666667 C35.7579086,10.6722177 35.8969406,10.6759184 36.0304845,10.6805442" id="Fill-27" fill="#2584BA"></path>
                                        <path d="M34.3275578,8.44495238 C34.3860976,8.39961905 34.4546989,8.3607619 34.5278737,8.32653061 C34.4537842,8.3607619 34.3870123,8.39961905 34.3275578,8.44495238" id="Fill-28" fill="#2584BA"></path>
                                        <path d="M34.8656073,8.19472109 C34.9726254,8.17436735 35.0887903,8.16326531 35.2177607,8.16326531 C35.0897049,8.16326531 34.9726254,8.17529252 34.8656073,8.19472109" id="Fill-29" fill="#2584BA"></path>
                                        <path d="M34.2199479,8.60468027 C34.2684262,8.54361905 34.3251366,8.48718367 34.3900792,8.43537415 C34.3251366,8.48718367 34.2684262,8.54361905 34.2199479,8.60468027" id="Fill-30" fill="#2584BA"></path>
                                        <path d="M35.4441181,10.7036735 C35.3032568,10.6971973 35.1623954,10.6860952 35.0270222,10.6666667 C35.1633101,10.6851701 35.3023421,10.6971973 35.4441181,10.7036735" id="Fill-31" fill="#2584BA"></path>
                                        <path d="M34.5427776,8.23357823 C34.6122936,8.20397279 34.6909565,8.18269388 34.7723633,8.16326531 C34.6900418,8.18176871 34.6122936,8.20397279 34.5427776,8.23357823" id="Fill-32" fill="#2584BA"></path>
                                        <path d="M24.9116917,8.32653061 C25.0113922,8.38666667 25.0927991,8.46068027 25.1650592,8.54394558 C25.0927991,8.46068027 25.0113922,8.38666667 24.9116917,8.32653061" id="Fill-33" fill="#2584BA"></path>
                                    </g>
                                </g>
                            </g>
                        </g>
                    </g>
                    <g id="img-fi-maestro" transform="translate(84.425532, 0.000000)">
                        <rect id="Rectangle" fill="#000000" x="0" y="0" width="36.9361702" height="24" rx="5.625"></rect>
                        <g id="Maestro-logo" transform="translate(5.936170, 2.000000)">
                            <g id="Group-9" transform="translate(0.000000, 0.095652)">
                                <path d="M18.0658598,17.460087 C18.1548577,17.460087 18.2820885,17.4774783 18.3797949,17.5166087 L18.2440679,17.9420435 C18.1506096,17.902913 18.0573636,17.8898696 17.9683658,17.8898696 C17.6797069,17.8898696 17.5354837,18.0809565 17.5354837,18.424 L17.5354837,19.5874783 L17.0943178,19.5874783 L17.0943178,17.5122609 L17.531448,17.5122609 L17.531448,17.764 C17.6459345,17.5818261 17.8113982,17.460087 18.0658598,17.460087 Z M16.5390903,17.9246522 L15.8179741,17.9246522 L15.8179741,18.8624783 C15.8179741,19.0709565 15.8899796,19.2098696 16.1106687,19.2098696 C16.2251552,19.2098696 16.3693784,19.1707391 16.5008573,19.0926957 L16.6280881,19.479 C16.488113,19.5787826 16.2676362,19.6396522 16.0766838,19.6396522 C15.5550163,19.6396522 15.3725602,19.3531304 15.3725602,18.8711739 L15.3725602,17.9246522 L14.961131,17.9246522 L14.961131,17.5122609 L15.3725602,17.5122609 L15.3723477,16.8826957 L15.8177617,16.8826957 L15.8179741,17.5122609 L16.5390903,17.5122609 L16.5390903,17.9246522 Z M14.419285,18.0420435 C14.2963023,17.9637826 14.0458764,17.864 13.7871667,17.864 C13.5454494,17.864 13.4012262,17.955087 13.4012262,18.1070435 C13.4012262,18.2459565 13.5539457,18.285087 13.7446856,18.3109565 L13.9526305,18.3413913 C14.3937964,18.4066087 14.6610023,18.5976957 14.6610023,18.9622609 C14.6610023,19.3574783 14.3215785,19.6396522 13.7361894,19.6396522 C13.4054743,19.6396522 13.1000354,19.5526957 12.8581058,19.3703043 L13.0660506,19.0187826 C13.2145219,19.1359565 13.4349987,19.2357391 13.7404375,19.2357391 C14.0416283,19.2357391 14.202844,19.1446522 14.202844,18.984 C14.202844,18.8668261 14.0883575,18.8016087 13.8466402,18.7670435 L13.6386954,18.7366087 C13.1847852,18.6713913 12.9388198,18.4631304 12.9388198,18.1244348 C12.9388198,17.7120435 13.2695349,17.460087 13.7829186,17.460087 C14.1053499,17.460087 14.3980445,17.534 14.610025,17.6772609 L14.419285,18.0420435 Z M11.0511736,18.3674783 L12.1032172,18.3674783 C12.056488,18.0461739 11.8740318,17.864 11.5898335,17.864 C11.2758984,17.864 11.0979027,18.067913 11.0511736,18.3674783 Z M12.5613755,18.5498696 C12.5613755,18.6107391 12.5571274,18.6670435 12.5528793,18.7235652 L11.0469255,18.7235652 C11.1106471,19.0968261 11.3693568,19.2313913 11.6535551,19.2313913 C11.8572518,19.2313913 12.0734805,19.1533478 12.2431923,19.0144348 L12.459421,19.3487826 C12.2134556,19.5613913 11.9335053,19.6396522 11.6280665,19.6396522 C11.0214368,19.6396522 10.5887671,19.2098696 10.5887671,18.5498696 C10.5887671,17.902913 11.0044444,17.460087 11.5983297,17.460087 C12.1667264,17.460087 12.5571274,17.902913 12.5613755,18.5498696 Z M19.6007008,17.8846522 C19.5102161,17.8846522 19.426316,17.9009565 19.3487881,17.9333478 C19.2710477,17.9659565 19.2039276,18.0113913 19.1476402,18.0698696 C19.0911404,18.1283478 19.0465353,18.1985652 19.0142497,18.280087 C18.9817516,18.3618261 18.9653964,18.4516087 18.9653964,18.5498696 C18.9653964,18.6481304 18.9817516,18.7381304 19.0142497,18.8196522 C19.0465353,18.9013913 19.0911404,18.9713913 19.1476402,19.0298696 C19.2039276,19.0883478 19.2710477,19.134 19.3487881,19.1663913 C19.426316,19.199 19.5102161,19.215087 19.6007008,19.215087 C19.6909731,19.215087 19.7750856,19.199 19.8526135,19.1663913 C19.9301415,19.134 19.9976864,19.0883478 20.0548234,19.0298696 C20.1119604,18.9713913 20.156778,18.9013913 20.189276,18.8196522 C20.221774,18.7381304 20.2379168,18.6481304 20.2379168,18.5498696 C20.2379168,18.4516087 20.221774,18.3618261 20.189276,18.280087 C20.156778,18.1985652 20.1119604,18.1283478 20.0548234,18.0698696 C19.9976864,18.0113913 19.9301415,17.9659565 19.8526135,17.9333478 C19.7750856,17.9009565 19.6909731,17.8846522 19.6007008,17.8846522 Z M19.6007008,17.4576957 C19.7572435,17.4576957 19.9023164,17.4855217 20.0357069,17.5411739 C20.1690975,17.5968261 20.2844336,17.6733478 20.3819276,17.7707391 C20.4792093,17.8683478 20.5556752,17.9835652 20.6104758,18.1163913 C20.6657012,18.2494348 20.6931014,18.3937826 20.6931014,18.5498696 C20.6931014,18.7059565 20.6657012,18.8503043 20.6104758,18.9833478 C20.5556752,19.1161739 20.4792093,19.2313913 20.3819276,19.329 C20.2844336,19.4263913 20.1690975,19.502913 20.0357069,19.5585652 C19.9023164,19.6142174 19.7572435,19.6420435 19.6007008,19.6420435 C19.4439457,19.6420435 19.2988728,19.6142174 19.1654823,19.5585652 C19.0320917,19.502913 18.916968,19.4263913 18.8203236,19.329 C18.7236792,19.2313913 18.6478505,19.1161739 18.5928375,18.9833478 C18.5378245,18.8503043 18.5102118,18.7059565 18.5102118,18.5498696 C18.5102118,18.3937826 18.5378245,18.2494348 18.5928375,18.1163913 C18.6478505,17.9835652 18.7236792,17.8683478 18.8203236,17.7707391 C18.916968,17.6733478 19.0320917,17.5968261 19.1654823,17.5411739 C19.2988728,17.4855217 19.4439457,17.4576957 19.6007008,17.4576957 Z M8.51908954,18.5498696 C8.51908954,18.9144348 8.75252301,19.2142174 9.1342154,19.2142174 C9.49891536,19.2142174 9.74509315,18.9274783 9.74509315,18.5498696 C9.74509315,18.1722609 9.49891536,17.8857391 9.1342154,17.8857391 C8.75252301,17.8857391 8.51908954,18.185087 8.51908954,18.5498696 Z M10.1607704,18.5498696 L10.1607704,19.5874783 L9.71960451,19.5874783 L9.71960451,19.3357391 C9.57962939,19.5224783 9.36743646,19.6396522 9.07899001,19.6396522 C8.51059333,19.6396522 8.06517934,19.1837826 8.06517934,18.5498696 C8.06517934,17.9159565 8.51059333,17.460087 9.07899001,17.460087 C9.36743646,17.460087 9.57962939,17.5772609 9.71960451,17.764 L9.71960451,17.5122609 L10.1607704,17.5122609 L10.1607704,18.5498696 Z M7.67499073,19.5874783 L7.67499073,18.285087 C7.67499073,17.7944348 7.36955186,17.4644348 6.87740869,17.460087 C6.61869899,17.4557391 6.35149308,17.5383478 6.16478878,17.8292174 C6.02481367,17.599 5.80433693,17.460087 5.49464995,17.460087 C5.27820891,17.460087 5.06622838,17.5253043 4.90076462,17.7683478 L4.90076462,17.5122609 L4.45959874,17.5122609 L4.45959874,19.5874783 L4.90501273,19.5874783 L4.90501273,18.4370435 C4.90501273,18.0766087 5.10000083,17.8857391 5.4011916,17.8857391 C5.69388615,17.8857391 5.84235748,18.0809565 5.84235748,18.4326957 L5.84235748,19.5874783 L6.28777147,19.5874783 L6.28777147,18.4370435 C6.28777147,18.0766087 6.49146819,17.8857391 6.78416275,17.8857391 C7.08535352,17.8857391 7.22957674,18.0809565 7.22957674,18.4326957 L7.22957674,19.5874783 L7.67499073,19.5874783 Z" id="Fill-2" fill="#FFFFFF"></path>
                                <polygon id="Fill-4" fill="#7673C0" points="9.2209405 13.9791304 15.9117086 13.9791304 15.9117086 1.67347826 9.2209405 1.67347826"></polygon>
                                <path d="M9.64581489,7.82628261 C9.64581489,5.32976087 10.7879184,3.1065 12.5663883,1.67345652 C11.265618,0.625413043 9.62457436,0.000195652174 7.84079434,0.000195652174 C3.61796383,0.000195652174 0.194839416,3.5041087 0.194839416,7.82628261 C0.194839416,12.1484565 3.61796383,15.6523696 7.84079434,15.6523696 C9.62457436,15.6523696 11.265618,15.0271522 12.5663883,13.9791087 C10.7879184,12.5460652 9.64581489,10.3228043 9.64581489,7.82628261" id="Fill-6" fill="#EB001B"></path>
                                <path d="M24.9379584,7.82628261 C24.9379584,12.1484565 21.5146216,15.6523696 17.2920035,15.6523696 C15.5082234,15.6523696 13.8669674,15.0271522 12.5664095,13.9791087 C14.3448794,12.5460652 15.4869829,10.3228043 15.4869829,7.82628261 C15.4869829,5.32976087 14.3448794,3.1065 12.5664095,1.67345652 C13.8669674,0.625413043 15.5082234,0.000195652174 17.2920035,0.000195652174 C21.5146216,0.000195652174 24.9379584,3.5041087 24.9379584,7.82628261" id="Fill-8" fill="#00A1DF"></path>
                            </g>
                        </g>
                    </g>
                    <g id="img-fi-mastercard" transform="translate(42.212766, 0.000000)">
                        <rect id="Rectangle" fill="#000000" x="0" y="0" width="36.9361702" height="24" rx="5.625"></rect>
                        <g id="Mastercard-logo" transform="translate(6.002112, 2.000000)">
                            <g id="Group-3" transform="translate(1.276427, 16.838989)">
                                <mask id="mask-12" fill="white">
                                    <use xlink:href="#path-11"></use>
                                </mask>
                                <g id="Clip-2"></g>
                                <path d="M20.6623131,1.91257143 C20.6623131,1.51652747 20.905047,1.1996044 21.2971229,1.1996044 C21.671967,1.1996044 21.9189556,1.50334066 21.9189556,1.91257143 C21.9189556,2.3218022 21.671967,2.62553846 21.2971229,2.62553846 C20.905047,2.62553846 20.6623131,2.30861538 20.6623131,1.91257143 L20.6623131,1.91257143 Z M22.3108188,1.91257143 L22.3108188,0.0158681319 L21.9019366,0.0158681319 L21.9019366,1.11608791 C21.7613169,0.926857143 21.5313473,0.807956044 21.2415983,0.807956044 C20.6708226,0.807956044 20.2361992,1.27015385 20.2361992,1.91257143 C20.2361992,2.55520879 20.6708226,3.01718681 21.2415983,3.01718681 C21.5313473,3.01718681 21.7613169,2.89828571 21.9019366,2.70905495 L21.9019366,2.96443956 L22.3108188,2.96443956 L22.3108188,1.91257143 Z M16.5515795,1.91257143 C16.5515795,1.51652747 16.7943134,1.1996044 17.1861766,1.1996044 C17.5610207,1.1996044 17.8082221,1.50334066 17.8082221,1.91257143 C17.8082221,2.3218022 17.5610207,2.62553846 17.1861766,2.62553846 C16.7943134,2.62553846 16.5515795,2.30861538 16.5515795,1.91257143 L16.5515795,1.91257143 Z M18.2000852,1.91257143 L18.2000852,0.860703297 L17.791203,0.860703297 L17.791203,1.11608791 C17.6505833,0.926857143 17.4206137,0.807956044 17.1308647,0.807956044 C16.5600891,0.807956044 16.1254656,1.27015385 16.1254656,1.91257143 C16.1254656,2.55520879 16.5600891,3.01718681 17.1308647,3.01718681 C17.4206137,3.01718681 17.6505833,2.89828571 17.791203,2.70905495 L17.791203,2.96443956 L18.2000852,2.96443956 L18.2000852,1.91257143 Z M23.0141301,2.80663736 L23.0141301,2.85850549 L23.0602942,2.85850549 C23.0707184,2.85850549 23.0792279,2.85630769 23.08561,2.85191209 C23.0917794,2.84773626 23.0949705,2.84114286 23.0949705,2.83235165 C23.0949705,2.82378022 23.0917794,2.81740659 23.08561,2.81301099 C23.0792279,2.80883516 23.0707184,2.80663736 23.0602942,2.80663736 L23.0141301,2.80663736 Z M23.0607197,2.77037363 C23.0847591,2.77037363 23.10348,2.77586813 23.116457,2.78707692 C23.129434,2.79806593 23.1360289,2.81323077 23.1360289,2.83235165 C23.1360289,2.8483956 23.1307105,2.86158242 23.120499,2.87191209 C23.1100749,2.88224176 23.0951832,2.88883516 23.0760368,2.89103297 L23.1375181,2.96421978 L23.0894393,2.96421978 L23.0324256,2.89169231 L23.0141301,2.89169231 L23.0141301,2.96421978 L22.9741354,2.96421978 L22.9741354,2.77037363 L23.0607197,2.77037363 Z M23.0488064,3.03081319 C23.0707184,3.03081319 23.0909285,3.02663736 23.1098622,3.01806593 C23.1285831,3.00949451 23.1451766,2.99784615 23.1592173,2.98334066 C23.1734708,2.96861538 23.1845331,2.95147253 23.1928299,2.93147253 C23.200914,2.91169231 23.204956,2.89059341 23.204956,2.86817582 C23.204956,2.84553846 23.200914,2.82443956 23.1928299,2.80465934 C23.1845331,2.78487912 23.1734708,2.76773626 23.1592173,2.75301099 C23.1451766,2.73828571 23.1285831,2.72685714 23.1098622,2.71850549 C23.0909285,2.70993407 23.0707184,2.70575824 23.0488064,2.70575824 C23.0266817,2.70575824 23.0058333,2.70993407 22.9866869,2.71850549 C22.9673278,2.72685714 22.9505215,2.73828571 22.9362681,2.75301099 C22.9222274,2.76773626 22.9109523,2.78487912 22.9028682,2.80465934 C22.8947842,2.82443956 22.8907422,2.84553846 22.8907422,2.86817582 C22.8907422,2.89059341 22.8947842,2.91169231 22.9028682,2.93147253 C22.9109523,2.95147253 22.9222274,2.96861538 22.9362681,2.98334066 C22.9505215,2.99784615 22.9673278,3.00949451 22.9866869,3.01806593 C23.0058333,3.02663736 23.0266817,3.03081319 23.0488064,3.03081319 L23.0488064,3.03081319 Z M23.0488064,2.65938462 C23.0773133,2.65938462 23.1039055,2.66487912 23.1287958,2.67564835 C23.1536862,2.68663736 23.1755981,2.70158242 23.1943191,2.72048352 C23.2128273,2.73938462 23.2275062,2.76158242 23.2383558,2.78707692 C23.2489927,2.81235165 23.2545239,2.83938462 23.2545239,2.86817582 C23.2545239,2.89674725 23.2489927,2.92378022 23.2383558,2.94905495 C23.2275062,2.97432967 23.2128273,2.99630769 23.1943191,3.01520879 C23.1755981,3.03410989 23.1536862,3.04927473 23.1287958,3.06026374 C23.1039055,3.07147253 23.0773133,3.07696703 23.0488064,3.07696703 C23.0196613,3.07696703 22.9926436,3.07147253 22.9673278,3.06026374 C22.942012,3.04927473 22.9201,3.03410989 22.9018045,3.01520879 C22.8830836,2.99630769 22.8686174,2.97432967 22.8577678,2.94905495 C22.8471309,2.92378022 22.8418125,2.89674725 22.8418125,2.86817582 C22.8418125,2.83938462 22.8471309,2.81235165 22.8577678,2.78707692 C22.8686174,2.76158242 22.8830836,2.73938462 22.9018045,2.72048352 C22.9201,2.70158242 22.942012,2.68663736 22.9673278,2.67564835 C22.9926436,2.66487912 23.0196613,2.65938462 23.0488064,2.65938462 L23.0488064,2.65938462 Z M19.7677504,0.807956044 C19.5122523,0.807956044 19.3288722,0.931252747 19.2139938,1.11608791 L19.2139938,0.860703297 L18.8091537,0.860703297 L18.8091537,2.96443956 L19.2182486,2.96443956 L19.2182486,1.78048352 C19.2182486,1.43279121 19.3801421,1.2083956 19.6696783,1.2083956 C19.7592409,1.2083956 19.8528456,1.22158242 19.946663,1.26114286 L20.0830279,0.865098901 C19.9849558,0.825538462 19.8571003,0.807956044 19.7677504,0.807956044 L19.7677504,0.807956044 Z M4.04876304,1.91257143 C4.04876304,1.51652747 4.29170967,1.1996044 4.6835728,1.1996044 C5.05841691,1.1996044 5.30561829,1.50334066 5.30561829,1.91257143 C5.30561829,2.3218022 5.05841691,2.62553846 4.6835728,2.62553846 C4.29170967,2.62553846 4.04876304,2.30861538 4.04876304,1.91257143 L4.04876304,1.91257143 Z M5.69748142,1.91257143 L5.69748142,0.860703297 L5.28838653,0.860703297 L5.28838653,1.11608791 C5.14797954,0.926857143 4.91779718,0.807956044 4.62826096,0.807956044 C4.0574853,0.807956044 3.62286186,1.27015385 3.62286186,1.91257143 C3.62286186,2.55520879 4.0574853,3.01718681 4.62826096,3.01718681 C4.91779718,3.01718681 5.14797954,2.89828571 5.28838653,2.70905495 L5.28838653,2.96443956 L5.69748142,2.96443956 L5.69748142,1.91257143 Z M11.209732,1.1996044 C11.5120325,1.1996044 11.7166863,1.40202198 11.7464696,1.73213187 L10.6472531,1.73213187 C10.6857587,1.424 10.8816902,1.1996044 11.209732,1.1996044 L11.209732,1.1996044 Z M11.2182415,0.807956044 C10.6217246,0.807956044 10.2128424,1.25235165 10.2128424,1.90817582 C10.2128424,2.57718681 10.6389563,3.01718681 11.2480248,3.01718681 C11.5547928,3.01718681 11.8358195,2.93806593 12.0830209,2.72224176 L11.8656028,2.40993407 C11.6951998,2.55081319 11.4779944,2.62993407 11.2735534,2.62993407 C10.9880591,2.62993407 10.6985229,2.46268132 10.6472531,2.08421978 L12.168116,2.08421978 C12.1723708,2.02707692 12.1766255,1.96971429 12.1766255,1.90817582 C12.1723708,1.25235165 11.7890172,0.807956044 11.2182415,0.807956044 L11.2182415,0.807956044 Z M14.0808421,1.91257143 C14.0808421,2.55081319 14.493979,3.01718681 15.1500626,3.01718681 C15.4568305,3.01718681 15.6612716,2.94685714 15.8827317,2.76641758 L15.6697811,2.43630769 C15.5036329,2.5596044 15.3289751,2.62553846 15.1372983,2.62553846 C14.783728,2.62114286 14.5067433,2.33498901 14.5067433,1.91257143 C14.5067433,1.49015385 14.783728,1.204 15.1372983,1.1996044 C15.3289751,1.1996044 15.5036329,1.26553846 15.6697811,1.38883516 L15.8827317,1.05872527 C15.6612716,0.878285714 15.4568305,0.807956044 15.1500626,0.807956044 C14.493979,0.807956044 14.0808421,1.27454945 14.0808421,1.91257143 L14.0808421,1.91257143 Z M7.90399846,1.02795604 C7.69104787,0.882681319 7.39704415,0.807956044 7.07325713,0.807956044 C6.55800605,0.807956044 6.24272855,1.05872527 6.24272855,1.47696703 C6.24272855,1.82004396 6.47269817,2.02707692 6.92859539,2.09301099 L7.13729123,2.12378022 C7.38002512,2.15894505 7.51213533,2.24707692 7.51213533,2.36575824 C7.51213533,2.52861538 7.33322279,2.63432967 7.03070956,2.63432967 C6.7111773,2.63432967 6.50248147,2.53301099 6.35356497,2.41432967 L6.1446564,2.74443956 C6.44716963,2.97323077 6.80924946,3.01718681 7.02645481,3.01718681 C7.61446224,3.01718681 7.93803652,2.73564835 7.93803652,2.33498901 C7.93803652,1.96531868 7.69104787,1.77608791 7.24366016,1.71015385 L7.03496432,1.67938462 C6.84328751,1.65301099 6.67288449,1.59125275 6.67288449,1.45059341 C6.67288449,1.29652747 6.834778,1.19081319 7.07751189,1.19081319 C7.33747755,1.19081319 7.58872096,1.29213187 7.71232165,1.37125275 L7.90399846,1.02795604 Z M13.6164354,0.807956044 C13.3609372,0.807956044 13.1777699,0.931252747 13.0626787,1.11608791 L13.0626787,0.860703297 L12.6580513,0.860703297 L12.6580513,2.96443956 L13.0669335,2.96443956 L13.0669335,1.78048352 C13.0669335,1.43279121 13.228827,1.2083956 13.5185759,1.2083956 C13.6079258,1.2083956 13.7017432,1.22158242 13.7953479,1.26114286 L13.9317129,0.865098901 C13.8338534,0.825538462 13.705998,0.807956044 13.6164354,0.807956044 L13.6164354,0.807956044 Z M9.8379983,0.860703297 L9.09681961,0.860703297 L9.09681961,0.222681319 L8.6836827,0.222681319 L8.6836827,0.860703297 L8.25331402,0.860703297 L8.25331402,1.24356044 L8.6836827,1.24356044 L8.6836827,2.23828571 C8.6836827,2.72663736 8.84983096,3.01718681 9.37359156,3.01718681 C9.56526837,3.01718681 9.78694122,2.95564835 9.92756094,2.85432967 L9.79970549,2.48026374 C9.66759528,2.5596044 9.5227208,2.59916484 9.40784236,2.59916484 C9.18616951,2.59916484 9.09681961,2.45828571 9.09681961,2.24707692 L9.09681961,1.24356044 L9.8379983,1.24356044 L9.8379983,0.860703297 Z M3.20121543,2.96443956 L3.20121543,1.6396044 C3.20121543,1.14246154 2.91146647,0.812351648 2.41727643,0.807956044 C2.15752351,0.80356044 1.88904833,0.887076923 1.70162628,1.18202198 C1.56100656,0.948835165 1.33954645,0.807956044 1.02852371,0.807956044 C0.811318359,0.807956044 0.581348738,0.869494505 0.415200472,1.11608791 L0.415200472,0.860703297 L0.00631831431,0.860703297 L0.00631831431,2.96443956 L0.41945523,2.96443956 L0.41945523,1.75850549 C0.41945523,1.39323077 0.632405823,1.1996044 0.934919053,1.1996044 C1.22871003,1.1996044 1.3948583,1.39762637 1.3948583,1.75410989 L1.3948583,2.96443956 L1.80820795,2.96443956 L1.80820795,1.75850549 C1.80820795,1.39323077 2.02966806,1.1996044 2.32367177,1.1996044 C2.626185,1.1996044 2.78786577,1.39762637 2.78786577,1.75410989 L2.78786577,2.96443956 L3.20121543,2.96443956 Z" id="Fill-1" fill="#FFFFFF" mask="url(#mask-12)"></path>
                            </g>
                            <mask id="mask-14" fill="white">
                                <use xlink:href="#path-13"></use>
                            </mask>
                            <g id="Clip-5"></g>
                            <polygon id="Fill-4" fill="#FF5F00" mask="url(#mask-14)" points="8.70480757 14.1326154 16.0772379 14.1326154 16.0772379 1.69173626 8.70480757 1.69173626"></polygon>
                            <path d="M9.4658347,7.91206593 C9.4658347,5.38810989 10.6097261,3.14041758 12.3909802,1.69162637 C11.0881736,0.632065934 9.44456091,-2.1978022e-05 7.6579884,-2.1978022e-05 C3.4285471,-2.1978022e-05 6.38213566e-05,3.5423956 6.38213566e-05,7.91206593 C6.38213566e-05,12.2817363 3.4285471,15.8241538 7.6579884,15.8241538 C9.44456091,15.8241538 11.0881736,15.1920659 12.3909802,14.1325055 C10.6097261,12.6837143 9.4658347,10.436022 9.4658347,7.91206593" id="Fill-6" fill="#EB001B" mask="url(#mask-14)"></path>
                            <path d="M24.8003303,13.0372359 L24.8003303,12.5078242 L24.6916865,12.5078242 L24.5666718,12.8720079 L24.4419547,12.5078242 L24.333311,12.5078242 L24.333311,13.0372359 L24.4098081,13.0372359 L24.4098081,12.6378086 L24.5270838,12.9822863 L24.6065574,12.9822863 L24.7235355,12.6370507 L24.7235355,13.0372359 L24.8003303,13.0372359 Z M24.1124516,13.0372359 L24.1124516,12.5980174 L24.2517537,12.5980174 L24.2517537,12.5085821 L23.8975453,12.5085821 L23.8975453,12.5980174 L24.0365498,12.5980174 L24.0365498,13.0372359 L24.1124516,13.0372359 Z" id="Fill-7" fill="#F79E1B" mask="url(#mask-14)"></path>
                            <path d="M24.7818966,7.91206593 C24.7818966,12.2817363 21.3532006,15.8241538 17.123972,15.8241538 C15.3373995,15.8241538 13.6935741,15.1920659 12.3909802,14.1325055 C14.1722343,12.6837143 15.3161257,10.436022 15.3161257,7.91206593 C15.3161257,5.38810989 14.1722343,3.14041758 12.3909802,1.69162637 C13.6935741,0.632065934 15.3373995,-2.1978022e-05 17.123972,-2.1978022e-05 C21.3532006,-2.1978022e-05 24.7818966,3.5423956 24.7818966,7.91206593" id="Fill-8" fill="#F79E1B" mask="url(#mask-14)"></path>
                        </g>
                    </g>
                    <g id="img-fi-visa">
                        <rect id="Rectangle" stroke="#979797" fill="#FFFFFF" x="0.5" y="0.5" width="35.9361702" height="23" rx="5.625"></rect>
                        <g id="Visa" transform="translate(3.693617, 7.019608)" fill="#16216A">
                            <path d="M21.1333084,0.531805487 C20.6674585,0.355236332 19.938202,0.164727506 19.0260563,0.164727506 C16.7048584,0.164727506 15.0680572,1.34495291 15.0542542,3.0374612 C15.0404513,4.28738496 16.2217547,4.9855301 17.113196,5.40255857 C18.0276421,5.82888015 18.3370585,6.10070372 18.3324575,6.48172137 C18.3255561,7.06486424 17.6009006,7.33087961 16.9245555,7.33087961 C15.9859541,7.33087961 15.486747,7.19845274 14.7137812,6.87435541 L14.4112663,6.73728199 L14.0811455,8.68535089 C14.6286629,8.92813348 15.6443308,9.13839017 16.6991071,9.14884492 C19.1698372,9.14884492 20.7732812,7.98255919 20.7916851,6.17504862 C20.7997369,5.18649368 20.1751529,4.43258985 18.8190119,3.81111289 C17.9965855,3.4080241 17.4939276,3.13968545 17.4973784,2.73195009 C17.4973784,2.37068031 17.9252702,1.98385446 18.8443174,1.98385446 C19.6126822,1.97107643 20.1705519,2.14067575 20.6030447,2.31608327 L20.8135398,2.41714588 L21.1333084,0.531805487" id="Fill-3"></path>
                            <path d="M27.158301,0.325033713 L25.3432116,0.325033713 C24.780741,0.325033713 24.3597506,0.480693363 24.1135978,1.04641164 L20.6225989,9.02222625 L23.0910284,9.02222625 C23.0910284,9.02222625 23.4936148,7.95003329 23.5856346,7.71538218 C23.8547923,7.71538218 26.2519066,7.71886709 26.5946801,7.71886709 C26.6648452,8.02321656 26.8810916,9.02222625 26.8810916,9.02222625 L29.0619595,9.02222625 L27.158301,0.325033713 L27.158301,0.325033713 Z M24.2608294,5.93575095 C24.4563714,5.43276119 25.1971303,3.50095523 25.1971303,3.50095523 C25.1844776,3.52534965 25.3903717,2.99796547 25.5076969,2.67038322 L25.6675812,3.42080213 C25.6675812,3.42080213 26.118478,5.49897462 26.2127982,5.93575095 L24.2608294,5.93575095 L24.2608294,5.93575095 Z" id="Fill-4"></path>
                            <path d="M8.28850271,0.322710435 L5.98800916,6.25752501 L5.74185635,5.05174354 C5.31511479,3.66242308 3.97967829,2.15461542 2.48780822,1.40071159 L4.59045933,9.0117715 L7.07729285,9.00944822 L10.7776367,0.322710435 L8.28850271,0.322710435" id="Fill-5"></path>
                            <path d="M3.85315114,0.318063878 L0.0619377737,0.318063878 L0.0331816044,0.498117951 C2.98126409,1.21833424 4.93323286,2.96079301 5.74185635,5.05174354 L4.91827966,1.05221984 C4.77564906,0.500441229 4.36386071,0.337811744 3.85315114,0.318063878" id="Fill-6"></path>
                            <polyline id="Fill-7" points="10.2600257 9.01874134 11.7288908 0.316902239 14.0799952 0.316902239 12.6076793 9.01874134 10.2600257 9.01874134"></polyline>
                        </g>
                    </g>
                    <g id="img-fi-unionpay" transform="translate(211.063830, 0.000000)">
                        <rect id="Rectangle" stroke="#979797" x="0.5" y="0.5" width="35.9361702" height="23" rx="5.625"></rect>
                        <g id="Union-Pay" transform="translate(2.638298, 2.000000)">
                            <path d="M23.1412376,11.0478317 L22.4132225,14.2051694 L22.6661368,14.2051694 L22.5113154,14.8560188 L22.2595829,14.8560188 L22.213491,15.0570164 L21.3164724,15.0570164 L21.364928,14.8560188 L19.5437083,14.8560188 L19.6867113,14.2554188 L19.8722606,14.2518295 L20.6144578,11.0478317 L20.7610063,10.4029644 L21.6769344,10.4029644 L21.6036602,10.7331747 C21.6036602,10.7331747 21.8353014,10.5525162 22.0574878,10.4950883 C22.2867653,10.4304819 23.6104292,10.4113393 23.6104292,10.4113393 L23.4591533,11.0478317 L23.1412376,11.0478317 L23.1412376,11.0478317 Z M21.5303859,11.0478317 L21.3472003,11.8566079 C21.3472003,11.8566079 21.6060239,11.7345736 21.7525724,11.6926991 C21.8991209,11.652021 22.1224892,11.6364676 22.1224892,11.6364676 L22.2595829,11.0478317 L21.5303859,11.0478317 L21.5303859,11.0478317 Z M21.2491074,12.2586031 L21.056467,13.0960932 C21.056467,13.0960932 21.3223816,12.9501306 21.4712938,12.9118454 C21.6166605,12.8711673 21.8400287,12.847239 21.8400287,12.847239 L21.9771225,12.2586031 L21.2491074,12.2586031 L21.2491074,12.2586031 Z M20.801189,14.2123479 L21.5280223,14.2123479 L21.6911166,13.5040705 L20.9619196,13.5040705 L20.801189,14.2123479 L20.801189,14.2123479 Z" id="Fill-3" fill="#FFFFFF"></path>
                            <path d="M23.6600665,10.4113393 L24.6327231,10.4113393 L24.6457234,10.7762457 C24.6386323,10.8360664 24.6929971,10.8683696 24.8040903,10.8707624 L24.9707301,10.8707624 L24.8229998,11.4761481 L24.2935342,11.4761481 C23.8397066,11.5120405 23.6659758,11.3098465 23.678976,11.0885098 L23.6600665,10.4113393" id="Fill-4" fill="#FFFFFF"></path>
                            <path d="M23.8255245,13.2911088 L22.8954143,13.2911088 L23.0195078,12.7503294 L24.0808026,12.7503294 L24.1966231,12.2550139 L23.1483286,12.2550139 L23.2913316,11.6472354 L26.2081195,11.6472354 L26.0639347,12.2550139 L25.0877326,12.2550139 L24.9707301,12.7503294 L25.9504778,12.7503294 L25.8252024,13.2911088 L24.7650895,13.2911088 L24.5878131,13.5184275 L25.0191857,13.5184275 L25.1704616,14.2015801 C25.1846437,14.2697757 25.1929166,14.3104538 25.2141897,14.3403642 C25.2342811,14.3654889 25.3654656,14.3786495 25.4422854,14.3786495 L25.5734699,14.3786495 L25.4174667,15.0426595 L25.0877326,15.0426595 C25.0369133,15.0426595 24.9600935,15.0426595 24.8537277,15.0283025 C24.7556348,15.0235168 24.6799968,14.9624997 24.6090863,14.9301965 C24.5452668,14.9014826 24.4507193,14.8261084 24.4188096,14.6992885 L24.2698974,14.0197251 L23.837343,14.6909136 C23.69434,14.9002861 23.4981541,15.0594093 23.145965,15.0594093 L22.4699509,15.0594093 L22.6058628,14.469577 L22.8658682,14.469577 C22.9391425,14.469577 23.0065075,14.4432558 23.0502357,14.4181311 C23.0998731,14.39181 23.1412376,14.3690781 23.190875,14.2972933 L23.8255245,13.2911088" id="Fill-5" fill="#FFFFFF"></path>
                            <path d="M13.5458565,11.8099477 L16.0088167,11.8099477 L15.8681774,12.4069585 L14.8766114,12.4069585 L14.759609,12.9118454 L15.7606297,12.9118454 L15.6140812,13.5291952 L14.6106968,13.5291952 L14.4180564,14.3499355 C14.3944195,14.4432558 14.6626978,14.4540236 14.759609,14.4540236 L15.2571647,14.3846315 L15.0964341,15.0618021 L13.9642288,15.0618021 C13.8708632,15.0618021 13.80468,15.0510344 13.7042234,15.0259097 C13.6073123,15.0031778 13.5612204,14.9589104 13.511583,14.8955005 C13.4702185,14.8285013 13.4016717,14.7746626 13.4371269,14.6310929 L13.6947687,13.5375701 L13.135757,13.5375701 L13.2823055,12.9118454 L13.8460445,12.9118454 L13.9642288,12.4069585 L13.4040353,12.4069585 L13.5458565,11.8099477" id="Fill-6" fill="#FFFFFF"></path>
                            <path d="M15.1377986,10.7403532 L16.1482742,10.7403532 L16.0029075,11.3624887 L14.6225152,11.3624887 L14.4806941,11.4928979 C14.4227838,11.5575043 14.3979651,11.533576 14.3187816,11.5754505 C14.2419618,11.6149322 14.0824131,11.6962883 13.8684995,11.6962883 L13.428854,11.6962883 L13.5706752,11.0980811 L13.699496,11.0980811 C13.8153166,11.0980811 13.8897727,11.0885098 13.9275917,11.0633851 C13.9689562,11.0346712 14.015048,10.973654 14.0635036,10.8707624 L14.2904174,10.4005715 L15.2938019,10.4005715 L15.1377986,10.7403532" id="Fill-7" fill="#FFFFFF"></path>
                            <path d="M16.5607373,10.4053572 L17.4258461,10.4053572 L17.3242077,10.8456377 C17.3242077,10.8456377 17.5794857,10.6266939 17.7709442,10.5525162 C17.952948,10.4771421 18.3807751,10.4137321 18.3807751,10.4137321 L19.771804,10.4029644 L19.3936143,12.0061597 C19.3297948,12.2801386 19.2506113,12.4560115 19.1938829,12.5409569 C19.1454273,12.6151346 19.0910626,12.6893123 18.9716964,12.7551151 C18.8594214,12.8173286 18.7518737,12.8520247 18.6537807,12.8687745 C18.5639607,12.8735601 18.4221396,12.875953 18.2259537,12.8771494 L16.8892895,12.8771494 L16.5879197,14.1429558 C16.5571917,14.2697757 16.5465552,14.3284001 16.5713739,14.3607032 C16.5914652,14.39181 16.6399207,14.4288989 16.7025584,14.4288989 L17.2887524,14.3690781 L17.1327492,15.0618021 L16.4661899,15.0618021 C16.2581855,15.0618021 16.1021823,15.0594093 15.999362,15.0510344 C15.8953598,15.0426595 15.7854484,15.0510344 15.7109923,14.9936065 C15.6483547,14.9397678 15.5514436,14.8703758 15.5478981,14.7950017 C15.5514436,14.7244132 15.5727167,14.608361 15.6034447,14.4540236 L16.5607373,10.4053572 L16.5607373,10.4053572 Z M18.4859591,12.0229095 L17.0795662,12.0229095 L17.0110194,12.3088525 L18.2318629,12.3088525 C18.3725022,12.2944956 18.4044119,12.316031 18.4126848,12.3088525 L18.4859591,12.0229095 L18.4859591,12.0229095 Z M17.1374765,11.7632876 C17.1374765,11.7632876 17.3963001,11.5120405 17.8654916,11.4270951 C17.9706756,11.4031668 18.6466897,11.4127381 18.6466897,11.4127381 L18.7223276,11.07176 L17.3041163,11.07176 L17.1374765,11.7632876 L17.1374765,11.7632876 Z" id="Fill-8" fill="#FFFFFF"></path>
                            <path d="M19.2281563,12.9908087 L19.1737915,13.3772506 C19.1430636,13.4933028 19.1206086,13.5842303 19.0390615,13.6631936 C18.9468777,13.742157 18.8416937,13.8282988 18.5828702,13.8282988 L18.1101331,13.8474415 L18.1290426,14.2817399 C18.1337699,14.4049706 18.163316,14.39181 18.1845892,14.4097562 C18.2105897,14.4324881 18.2259537,14.4432558 18.2495905,14.4504343 L18.4020482,14.4432558 L18.8523303,14.4133455 L18.7057818,15.0510344 L18.1845892,15.0510344 C17.8170361,15.0510344 17.5404849,15.0426595 17.449483,14.9744638 C17.3572993,14.9122503 17.3431172,14.839269 17.3372079,14.7244132 L17.2651155,13.0255048 L18.103042,13.0255048 L18.1124968,13.3772506 L18.3122282,13.3772506 C18.3831388,13.3772506 18.4268669,13.3676793 18.456413,13.3473402 C18.4776862,13.3305904 18.4930501,13.3030729 18.5084141,13.2576092 L18.5675062,12.9908087 L19.2281563,12.9908087" id="Fill-9" fill="#FFFFFF"></path>
                            <path d="M7.29272658,4.5034449 C7.26081683,4.64342539 6.72662392,7.14393151 6.72426023,7.14393151 C6.60843964,7.65480046 6.52098328,8.01372479 6.24325024,8.24941842 C6.07542857,8.3798276 5.88633374,8.44563039 5.6724202,8.44563039 C5.32023107,8.44563039 5.11340859,8.27095388 5.07558962,7.93117219 L5.06731672,7.81751282 C5.06731672,7.81751282 5.17604626,7.14273509 5.17604626,7.13794944 C5.17604626,7.13794944 5.73978524,4.85519074 5.84260556,4.55369431 C5.84496924,4.53814092 5.84851477,4.52976602 5.8520603,4.51899829 C4.75649209,4.53096243 4.56148804,4.52258753 4.54848777,4.49865924 C4.54139671,4.52378395 4.51303248,4.66615726 4.51303248,4.66615726 L3.93865692,7.24084108 L3.88429215,7.45739208 L3.7944721,8.17165149 C3.7944721,8.3798276 3.83347291,8.55689693 3.91620191,8.69807383 C4.17738915,9.16587186 4.92667744,9.2352639 5.34741345,9.2352639 C5.89224295,9.2352639 6.39925348,9.11562246 6.7455334,8.90266069 C7.34472766,8.5461292 7.50309459,7.9814216 7.6390065,7.48610603 L7.70400785,7.23246617 C7.70400785,7.23246617 8.28665632,4.86117281 8.38474927,4.55369431 C8.38711295,4.53814092 8.39184032,4.52976602 8.39420401,4.51899829 C7.60118754,4.52976602 7.36836452,4.51899829 7.29272658,4.5034449" id="Fill-10" fill="#FFFFFF"></path>
                            <path d="M10.4967022,9.20894278 C10.1090578,9.20296071 9.97196405,9.20296071 9.51931829,9.22449617 L9.49804512,9.1933894 C9.53940961,9.01512365 9.58313779,8.84403639 9.6221386,8.66696705 L9.67650337,8.430077 C9.76159605,8.05320646 9.84668872,7.62369369 9.85141609,7.48969527 C9.86087084,7.41312475 9.88568953,7.21451996 9.6635031,7.21451996 C9.57013752,7.21451996 9.47086274,7.25998371 9.3704061,7.30544745 C9.31958687,7.50524866 9.20376628,8.05918853 9.15294704,8.31282839 C9.04185382,8.84882204 9.03121724,8.90864277 8.98276169,9.17065752 L8.94967009,9.20894278 C8.54784356,9.20296071 8.41074981,9.20296071 7.95219483,9.22449617 L7.9321035,9.18740732 C8.00655959,8.86916109 8.08456121,8.55091486 8.15547178,8.23147221 C8.35047583,7.37364308 8.39656769,7.0434327 8.44856877,6.60674144 L8.4852059,6.57563466 C8.93666982,6.51820677 9.04421751,6.50026056 9.53113671,6.39976174 L9.57013752,6.44761832 L9.49568143,6.72399005 C9.57959227,6.67134782 9.66113941,6.62229482 9.74505025,6.57563466 C9.97196405,6.46556454 10.2272421,6.43206493 10.3690632,6.43206493 C10.5794312,6.43206493 10.8110724,6.49068924 10.9091653,6.74073985 C11.0072583,6.96327293 10.9410751,7.234859 10.8193453,7.77683473 L10.7602532,8.05201005 C10.6314323,8.65141367 10.6137047,8.76387662 10.5427941,9.17065752 L10.4967022,9.20894278" id="Fill-11" fill="#FFFFFF"></path>
                            <path d="M12.0744623,9.20894278 C11.8392756,9.20535354 11.6903634,9.20296071 11.5438149,9.20535354 C11.3972664,9.20894278 11.2530816,9.21253203 11.0368044,9.22449617 L11.0238041,9.20535354 L11.0119857,9.18740732 C11.0698959,8.95769576 11.1018057,8.87873241 11.1313518,8.79857264 C11.1608978,8.71841287 11.1892621,8.63586028 11.2412631,8.40375588 C11.3074463,8.10465228 11.3511745,7.89527976 11.3795387,7.70983553 C11.4126303,7.53156978 11.4291761,7.38082156 11.4516312,7.20375223 L11.4729043,7.18939526 L11.4870864,7.1762347 C11.7222731,7.14273509 11.8688216,7.12000322 12.0224612,7.0936821 C12.1713734,7.0685574 12.3273766,7.0434327 12.5696544,6.99557612 L12.5767454,7.018308 L12.587382,7.03745063 C12.5377446,7.22528769 12.4963801,7.41312475 12.4502883,7.60335464 C12.4065601,7.78760246 12.3640137,7.97663594 12.3226492,8.16208017 C12.2304655,8.55928976 12.2009194,8.70884156 12.1784644,8.80934037 C12.1595549,8.91342842 12.1548276,8.96846349 12.1193723,9.17065752 L12.0980991,9.19099657 L12.0744623,9.20894278" id="Fill-12" fill="#FFFFFF"></path>
                            <path d="M15.563262,7.85460167 C15.7003558,7.24682315 15.5975354,6.96566576 15.4628054,6.79338209 C15.2571647,6.53017092 14.9037938,6.44761832 14.5303315,6.44761832 C14.308145,6.44761832 13.7810432,6.47154661 13.3662164,6.85679205 C13.0707557,7.13555661 12.925389,7.51481998 12.8462056,7.87972637 C12.7622947,8.24941842 12.6642018,8.92060691 13.2681234,9.16467545 C13.4560364,9.24244239 13.7243147,9.26756709 13.8956819,9.26756709 C14.3424185,9.26756709 14.7962461,9.14313999 15.1354349,8.77344794 C15.4025314,8.47793358 15.5207157,8.0400459 15.563262,7.85460167 M14.5492409,7.80913792 C14.5267859,7.90963673 14.4393296,8.29607859 14.3187816,8.45400529 C14.2360526,8.57245032 14.1367778,8.64423518 14.0327757,8.64423518 C14.0008659,8.64423518 13.8070437,8.64423518 13.8023163,8.35350648 C13.8023163,8.21113316 13.827135,8.06636702 13.8637722,7.90485107 C13.9654106,7.44782077 14.0883223,7.06616457 14.3944195,7.06616457 C14.6366973,7.06616457 14.6520613,7.34971479 14.5492409,7.80913792" id="Fill-13" fill="#FFFFFF"></path>
                            <path d="M24.1257126,8.50186187 C24.047711,8.61671765 23.8574343,8.68610969 23.7522503,8.68610969 C23.7203405,8.68610969 23.5300638,8.68610969 23.5253365,8.40255947 C23.5229728,8.26138257 23.5489733,8.11542001 23.5856105,7.95390407 C23.6848852,7.50764149 23.8077969,7.12478888 24.1186215,7.12478888 C24.3159893,7.12478888 24.4140822,7.32219726 24.3868998,7.64522915 C24.3691722,7.71701401 24.3597174,7.78520963 24.340808,7.87135147 C24.3065345,8.00893913 24.2675337,8.15011603 24.2332603,8.29009651 C24.2037142,8.37264911 24.1694408,8.44802322 24.1257126,8.50186187 M25.6680173,6.47752868 C25.1799163,6.56965259 25.0510954,6.58400956 24.5878131,6.64861594 L24.5476304,6.68331196 C24.5452668,6.72159722 24.5381757,6.75748965 24.5322665,6.79577491 C24.4625378,6.67374064 24.3620811,6.57084901 24.1966231,6.50863546 C23.9862551,6.42369003 23.5005178,6.53256374 23.085691,6.92020201 C22.7878666,7.19418091 22.6507729,7.57224787 22.5633165,7.93117219 C22.4829512,8.297275 22.3848582,8.96607066 22.987598,9.20296071 C23.1790566,9.28551331 23.3539693,9.30824518 23.5253365,9.29987028 C23.7156132,9.28910255 23.882253,9.19099657 24.0429836,9.05580174 C24.025256,9.11562246 24.0134375,9.17065752 23.9980736,9.226889 L24.025256,9.26517426 C24.4601741,9.24244239 24.5949041,9.24244239 25.0640957,9.24842446 L25.106642,9.21253203 C25.1728252,8.80814395 25.2413721,8.41093437 25.4174667,7.63087217 C25.5025594,7.25759088 25.5900157,6.88789882 25.6810176,6.51820677 L25.6680173,6.47752868" id="Fill-14" fill="#FFFFFF"></path>
                            <path d="M18.2176808,9.20894278 C17.825309,9.20296071 17.6964881,9.20296071 17.2379332,9.22449617 L17.2213874,9.1933894 C17.2627519,9.01512365 17.30648,8.84403639 17.3454808,8.66696705 L17.4010275,8.430077 C17.4813928,8.05320646 17.5676673,7.62369369 17.5783039,7.48969527 C17.5818494,7.41312475 17.6066681,7.21451996 17.3844817,7.21451996 C17.2934798,7.21451996 17.1918413,7.25998371 17.0913847,7.30544745 C17.0405654,7.50524866 16.9282904,8.05918853 16.8739256,8.31282839 C16.7663779,8.84882204 16.7569232,8.90864277 16.7084676,9.17065752 L16.6718305,9.20894278 C16.2735495,9.20296071 16.1364557,9.20296071 15.6743552,9.22449617 L15.6530821,9.18740732 C15.7310837,8.86916109 15.8067216,8.55091486 15.8776322,8.23147221 C16.0726362,7.37364308 16.1175462,7.0434327 16.1730929,6.60674144 L16.20973,6.57563466 C16.6600121,6.51820677 16.7663779,6.50026056 17.2556608,6.39976174 L17.2934798,6.44761832 L17.2213874,6.72399005 C17.2982071,6.67134782 17.382118,6.62229482 17.464847,6.57563466 C17.6941244,6.46556454 17.9482206,6.43206493 18.0876781,6.43206493 C18.3004098,6.43206493 18.5344146,6.49068924 18.6313257,6.74073985 C18.7246913,6.96327293 18.6644173,7.234859 18.5415057,7.77683473 L18.4800499,8.05201005 C18.3535927,8.65141367 18.3335014,8.76387662 18.2637726,9.17065752 L18.2176808,9.20894278" id="Fill-15" fill="#FFFFFF"></path>
                            <path d="M22.0054867,5.96665973 C21.935758,6.27892389 21.7383903,6.54452789 21.4783849,6.67134782 C21.2644713,6.78022153 21.0080115,6.78859643 20.7361876,6.78859643 L20.5600931,6.78859643 L20.5766389,6.71800798 C20.5766389,6.71800798 20.8957364,5.30982822 20.8957364,5.31461387 L20.9028275,5.24641825 L20.9099185,5.18659753 L21.0387394,5.19736526 C21.0387394,5.19736526 21.6993895,5.26077522 21.7135716,5.26316805 C21.9723951,5.36127404 22.0823065,5.62807445 22.0054867,5.96665973 M21.5835689,4.49626642 L21.2621076,4.5034449 C20.4218175,4.51421263 20.087356,4.50942697 19.9455348,4.49028434 C19.9337164,4.55369431 19.9112614,4.66376443 19.9112614,4.66376443 C19.9112614,4.66376443 19.613437,6.07672985 19.613437,6.07912268 C19.613437,6.07912268 18.8936948,9.08212286 18.8594214,9.22090693 C19.5886183,9.21253203 19.8923519,9.20894278 20.0164454,9.22449617 C20.0459915,9.08690851 20.2173587,8.2470256 20.2185405,8.2470256 C20.2185405,8.2470256 20.3627253,7.63087217 20.3733619,7.61053313 C20.3733619,7.61053313 20.4135446,7.54473034 20.463182,7.52080205 L20.5317288,7.52080205 C21.161651,7.52080205 21.8766659,7.52080205 22.4380412,7.102057 C22.8174127,6.81850679 23.0750544,6.39736892 23.1956024,5.88410713 C23.2227847,5.75609079 23.2464216,5.6077354 23.2464216,5.45579077 C23.2464216,5.26316805 23.2074208,5.06456326 23.0951457,4.91142222 C22.8126853,4.50942697 22.2430371,4.5034449 21.5835689,4.49626642" id="Fill-16" fill="#FFFFFF"></path>
                            <path d="M12.5011075,6.79338209 C12.7563855,6.61631275 12.7918408,6.3626729 12.5743817,6.23465656 C12.354559,6.10424738 11.971642,6.14492547 11.7128184,6.32438764 C11.4516312,6.50624263 11.4244488,6.75509682 11.6419078,6.88670241 C11.8593669,7.01591517 12.2422839,6.97523708 12.5011075,6.79338209" id="Fill-17" fill="#FFFFFF"></path>
                            <path d="M28.9039027,6.47154661 L28.8625382,6.42727928 C28.3838919,6.52658167 28.2976174,6.54213506 27.8556082,6.60075937 L27.8213348,6.63306255 C27.8213348,6.64263387 27.8213348,6.64741953 27.820153,6.65459801 L27.8177893,6.64741953 C27.4880551,7.41671399 27.5010554,7.24921598 27.233959,7.85460167 C27.2304134,7.82588772 27.2304134,7.80554868 27.2304134,7.77922756 L27.1630484,6.47154661 L27.1216839,6.42727928 C26.6205826,6.52658167 26.6064005,6.54213506 26.1454818,6.60075937 L26.1076628,6.63306255 C26.1029355,6.64861594 26.1005718,6.66656216 26.0982081,6.68450837 L26.1029355,6.69168686 C26.1596639,6.99079046 26.1466636,6.9273805 26.2057558,7.39876778 C26.2305745,7.63087217 26.2672116,7.8653694 26.2932121,8.09867021 C26.3416677,8.47554075 26.3676682,8.66935988 26.4208512,9.2520137 C26.1076628,9.77843604 26.0343886,9.97704084 25.7353824,10.4340711 L25.7353824,10.4388568 L25.5226507,10.7762457 C25.497832,10.8169238 25.4765588,10.840852 25.4446491,10.8492269 C25.4127393,10.8647803 25.3654656,10.8707624 25.3051916,10.8707624 L25.144461,10.8707624 L25.0050036,11.4869158 L25.6101071,11.4761481 C25.9622962,11.4725588 26.1856645,11.3002752 26.3050306,11.0789385 L26.6796747,10.4244998 L28.9039027,6.47154661" id="Fill-18" fill="#FFFFFF"></path>
                            <path d="M6.37561663,0.0970506241 L14.1001407,0.0970506241 C15.1791631,0.0970506241 15.8492679,0.985986532 15.5975354,2.08190213 L12.0000062,17.7130564 C11.7470918,18.8053828 10.6704331,19.6943187 9.59377438,19.6943187 L1.86570477,19.6943187 C0.789046044,19.6943187 0.117759373,18.8053828 0.369491875,17.7130564 L3.96820299,2.08190213 C4.21875364,0.985986532 5.29541237,0.0970506241 6.37561663,0.0970506241" id="Fill-19" fill="#D80029"></path>
                            <path d="M13.4607638,0.0970506241 L21.1852879,0.0970506241 C22.2619466,0.0970506241 22.9379606,0.985986532 22.6803189,2.08190213 L19.0863352,17.7130564 C18.832239,18.8053828 17.7520347,19.6943187 16.6718305,19.6943187 L8.94967009,19.6943187 C7.87064768,19.6943187 7.20054285,18.8053828 7.4534572,17.7130564 L11.0486228,2.08190213 C11.3003553,0.985986532 12.3817414,0.0970506241 13.4607638,0.0970506241" id="Fill-20" fill="#0E2E62"></path>
                            <path d="M21.9948501,0.0970506241 L29.7122832,0.0970506241 C30.7913056,0.0970506241 31.4649559,0.985986532 31.2108597,2.08190213 L27.6145123,17.7130564 C27.3639617,18.8053828 26.2837574,19.6943187 25.2059168,19.6943187 L17.4778472,19.6943187 C16.4000067,19.6943187 15.7263563,18.8053828 15.9804525,17.7130564 L19.5767999,2.08190213 C19.8285324,0.985986532 20.9099185,0.0970506241 21.9948501,0.0970506241" id="Fill-21" fill="#0C606C"></path>
                            <path d="M23.1412376,11.6364676 L22.4132225,14.7878232 L22.6661368,14.7878232 L22.5113154,15.4434583 L22.2595829,15.4434583 L22.213491,15.6444559 L21.3164724,15.6444559 L21.364928,15.4434583 L19.5437083,15.4434583 L19.6867113,14.839269 L19.8722606,14.8380726 L20.6144578,11.6364676 L20.7610063,10.9927967 L21.6769344,10.9927967 L21.6036602,11.317025 C21.6036602,11.317025 21.8353014,11.1375628 22.0574878,11.0789385 C22.2867653,11.016725 23.6104292,10.9939931 23.6104292,10.9939931 L23.4591533,11.6364676 L23.1412376,11.6364676 L23.1412376,11.6364676 Z M21.5303859,11.6364676 L21.3472003,12.4428509 C21.3472003,12.4428509 21.6060239,12.3184238 21.7525724,12.2801386 C21.8991209,12.2394605 22.1224892,12.2191214 22.1224892,12.2191214 L22.2595829,11.6364676 L21.5303859,11.6364676 L21.5303859,11.6364676 Z M21.2491074,12.847239 L21.056467,13.678747 C21.056467,13.678747 21.3223816,13.5375701 21.4712938,13.4944992 C21.6166605,13.4562139 21.8400287,13.4310892 21.8400287,13.4310892 L21.9771225,12.847239 L21.2491074,12.847239 L21.2491074,12.847239 Z M20.801189,14.7997873 L21.5280223,14.7997873 L21.6911166,14.0891172 L20.9619196,14.0891172 L20.801189,14.7997873 L20.801189,14.7997873 Z" id="Fill-22" fill="#FFFFFF"></path>
                            <path d="M23.6600665,10.9975823 L24.6327231,10.9975823 L24.6457234,11.3624887 C24.6386323,11.4235059 24.6929971,11.4522198 24.8040903,11.4546126 L24.9707301,11.4546126 L24.8229998,12.0611947 L24.2935342,12.0611947 C23.8397066,12.0958908 23.6659758,11.897286 23.678976,11.6735565 L23.6600665,10.9975823" id="Fill-23" fill="#FFFFFF"></path>
                            <path d="M23.8255245,13.8761554 L22.8954143,13.8761554 L23.0195078,13.3377689 L24.0808026,13.3377689 L24.1966231,12.8436498 L23.1483286,12.8436498 L23.2913316,12.2334784 L26.2081195,12.2334784 L26.0639347,12.8436498 L25.0877326,12.8436498 L24.9707301,13.3377689 L25.9504778,13.3377689 L25.8252024,13.8761554 L24.7650895,13.8761554 L24.5878131,14.105867 L25.0191857,14.105867 L25.1704616,14.7878232 C25.1846437,14.853626 25.1929166,14.8978933 25.2141897,14.9278037 C25.2342811,14.9493391 25.3654656,14.9613033 25.4422854,14.9613033 L25.5734699,14.9613033 L25.4174667,15.6289025 L25.0877326,15.6289025 C25.0369133,15.6289025 24.9600935,15.6277061 24.8537277,15.6169384 C24.7556348,15.6097599 24.6799968,15.5475463 24.6090863,15.517636 C24.5452668,15.4865292 24.4507193,15.4147443 24.4188096,15.2843352 L24.2698974,14.6071646 L23.837343,15.2747638 C23.69434,15.4865292 23.4981541,15.6456523 23.145965,15.6456523 L22.4699509,15.6456523 L22.6058628,15.0570164 L22.8658682,15.0570164 C22.9391425,15.0570164 23.0065075,15.0259097 23.0502357,15.0007849 C23.0998731,14.9792495 23.1412376,14.9541248 23.190875,14.8835363 L23.8255245,13.8761554" id="Fill-24" fill="#FFFFFF"></path>
                            <path d="M13.5458565,12.3973872 L16.0088167,12.3973872 L15.8681774,12.9908087 L14.8766114,12.9908087 L14.759609,13.5004813 L15.7606297,13.5004813 L15.6140812,14.1130455 L14.6106968,14.1130455 L14.4180564,14.9349822 C14.3944195,15.0259097 14.6626978,15.0426595 14.759609,15.0426595 L15.2571647,14.972071 L15.0964341,15.6456523 L13.9642288,15.6456523 C13.8708632,15.6456523 13.80468,15.6384738 13.7042234,15.6145455 C13.6073123,15.5894208 13.5612204,15.5451535 13.511583,15.4817435 C13.4702185,15.4171372 13.4016717,15.3573164 13.4371269,15.2161395 L13.6947687,14.1226168 L13.135757,14.1226168 L13.2823055,13.5004813 L13.8460445,13.5004813 L13.9642288,12.9908087 L13.4040353,12.9908087 L13.5458565,12.3973872" id="Fill-25" fill="#FFFFFF"></path>
                            <path d="M15.1377986,11.3289891 L16.1482742,11.3289891 L16.0029075,11.9475354 L14.6225152,11.9475354 L14.4806941,12.0815338 C14.4227838,12.1437473 14.3979651,12.1186226 14.3187816,12.1604971 C14.2419618,12.2047645 14.0824131,12.2801386 13.8684995,12.2801386 L13.428854,12.2801386 L13.5706752,11.6855206 L13.699496,11.6855206 C13.8153166,11.6855206 13.8897727,11.6711636 13.9275917,11.6472354 C13.9689562,11.6221107 14.015048,11.5575043 14.0635036,11.4546126 L14.2904174,10.9904038 L15.2938019,10.9904038 L15.1377986,11.3289891" id="Fill-26" fill="#FFFFFF"></path>
                            <path d="M16.5607373,10.9927967 L17.4258461,10.9927967 L17.3242077,11.4342736 C17.3242077,11.4342736 17.5794857,11.2105441 17.7709442,11.1375628 C17.952948,11.0633851 18.3807751,10.9999752 18.3807751,10.9999752 L19.771804,10.9927967 L19.3936143,12.5912063 C19.3297948,12.8687745 19.2506113,13.043451 19.1938829,13.1224143 C19.1454273,13.2037705 19.0910626,13.2731625 18.9716964,13.3413582 C18.8594214,13.4059645 18.7518737,13.441857 18.6537807,13.4514283 C18.5639607,13.462196 18.4221396,13.462196 18.2259537,13.4633924 L16.8892895,13.4633924 L16.5879197,14.7291989 C16.5571917,14.8560188 16.5465552,14.9146431 16.5713739,14.9493391 C16.5914652,14.9768567 16.6399207,15.0115527 16.7025584,15.0115527 L17.2887524,14.9541248 L17.1327492,15.6516344 L16.4661899,15.6516344 C16.2581855,15.6516344 16.1021823,15.6456523 15.999362,15.6372774 C15.8953598,15.6289025 15.7854484,15.6372774 15.7109923,15.5798495 C15.6483547,15.5224216 15.5514436,15.454226 15.5478981,15.3812447 C15.5514436,15.3118527 15.5727167,15.1969969 15.6034447,15.0438559 L16.5607373,10.9927967 L16.5607373,10.9927967 Z M18.4859591,12.610349 L17.0795662,12.610349 L17.0110194,12.896292 L18.2318629,12.896292 C18.3725022,12.8831314 18.4044119,12.9010777 18.4126848,12.8950956 L18.4859591,12.610349 L18.4859591,12.610349 Z M17.1374765,12.3519234 C17.1374765,12.3519234 17.3963001,12.0958908 17.8654916,12.0109453 C17.9706756,11.9929991 18.6466897,11.9977848 18.6466897,11.9977848 L18.7223276,11.6556103 L17.3041163,11.6556103 L17.1374765,12.3519234 L17.1374765,12.3519234 Z" id="Fill-27" fill="#FFFFFF"></path>
                            <path d="M19.2281563,13.5758554 L19.1737915,13.9599044 C19.1430636,14.0783494 19.1206086,14.1704733 19.0390615,14.2518295 C18.9468777,14.3295965 18.8416937,14.4133455 18.5828702,14.4133455 L18.1101331,14.4324881 L18.1290426,14.8655901 C18.1337699,14.9936065 18.163316,14.9792495 18.1845892,14.9983921 C18.2105897,15.021124 18.2259537,15.0283025 18.2495905,15.035481 L18.4020482,15.0283025 L18.8523303,15.0007849 L18.7057818,15.6384738 L18.1845892,15.6384738 C17.8170361,15.6384738 17.5404849,15.6277061 17.449483,15.5559212 C17.3572993,15.4961005 17.3431172,15.4279049 17.3372079,15.3106563 L17.2651155,13.6129442 L18.103042,13.6129442 L18.1124968,13.9599044 L18.3122282,13.9599044 C18.3831388,13.9599044 18.4268669,13.9551188 18.456413,13.9359761 C18.4776862,13.9144407 18.4930501,13.889316 18.5084141,13.8474415 L18.5675062,13.5758554 L19.2281563,13.5758554" id="Fill-28" fill="#FFFFFF"></path>
                            <path d="M7.29272658,5.08729513 C7.26081683,5.23086486 6.72662392,7.73017457 6.72426023,7.7325674 C6.60843964,8.23745428 6.52098328,8.59877143 6.24325024,8.83326866 C6.07542857,8.96846349 5.88633374,9.03187345 5.6724202,9.03187345 C5.32023107,9.03187345 5.11340859,8.85719695 5.07558962,8.5210045 L5.06731672,8.40375588 C5.06731672,8.40375588 5.17604626,7.73017457 5.17604626,7.72778174 C5.17604626,7.72778174 5.73978524,5.44263022 5.84260556,5.13993737 C5.84496924,5.12318757 5.84851477,5.11122342 5.8520603,5.10284852 C4.75649209,5.11600908 4.56148804,5.10763418 4.54848777,5.08729513 C4.54139671,5.11122342 4.51303248,5.25598957 4.51303248,5.25598957 L3.93865692,7.82588772 L3.88429215,8.04483156 L3.7944721,8.75550172 C3.7944721,8.96846349 3.83347291,9.14194358 3.91620191,9.28790613 C4.17738915,9.7497221 4.92667744,9.81791772 5.34741345,9.81791772 C5.89224295,9.81791772 6.39925348,9.69827628 6.7455334,9.49010017 C7.34472766,9.1275866 7.50309459,8.56766466 7.6390065,8.07234909 L7.70400785,7.81751282 C7.70400785,7.81751282 8.28665632,5.44621946 8.38474927,5.13993737 C8.38711295,5.12318757 8.39184032,5.11122342 8.39420401,5.10284852 C7.60118754,5.11481267 7.36836452,5.10763418 7.29272658,5.08729513" id="Fill-29" fill="#FFFFFF"></path>
                            <path d="M10.4967022,9.79398943 C10.1090578,9.78800736 9.97196405,9.78800736 9.51931829,9.80954282 L9.49804512,9.77843604 C9.53940961,9.60136671 9.58313779,9.42669021 9.6221386,9.2520137 L9.67650337,9.01512365 C9.76159605,8.64184235 9.84668872,8.21113316 9.85141609,8.07713475 C9.86087084,7.9981714 9.88568953,7.80076302 9.6635031,7.80076302 C9.57013752,7.80076302 9.47086274,7.84503035 9.3704061,7.89288693 C9.31958687,8.08909889 9.20376628,8.64662801 9.15294704,8.89907145 C9.04185382,9.43506511 9.03121724,9.49727866 8.98276169,9.758097 L8.94967009,9.79398943 C8.54784356,9.78800736 8.41074981,9.78800736 7.95219483,9.80954282 L7.9321035,9.77365039 C8.00655959,9.45061849 8.08456121,9.1359615 8.15547178,8.81651886 C8.35047583,7.95749331 8.39656769,7.63087217 8.44856877,7.19418091 L8.4852059,7.16427055 C8.93666982,7.102057 9.04421751,7.08650362 9.53113671,6.98480839 L9.57013752,7.03027214 L9.49568143,7.30784028 C9.57959227,7.25998371 9.66113941,7.2097343 9.74505025,7.16427055 C9.97196405,7.0518076 10.2272421,7.01591517 10.3690632,7.01591517 C10.5794312,7.01591517 10.8110724,7.07812872 10.9091653,7.32459008 C11.0072583,7.54712317 10.9410751,7.82110207 10.8193453,8.36188138 L10.7602532,8.63346745 C10.6314323,9.23765673 10.6137047,9.34892327 10.5427941,9.758097 L10.4967022,9.79398943" id="Fill-30" fill="#FFFFFF"></path>
                            <path d="M12.0744623,9.79398943 C11.8392756,9.78800736 11.6903634,9.78800736 11.5438149,9.79398943 C11.3972664,9.79398943 11.2530816,9.79877509 11.0368044,9.80954282 L11.0238041,9.78800736 L11.0119857,9.77365039 C11.0698959,9.54633165 11.1018057,9.46497547 11.1313518,9.38601212 C11.1608978,9.30465594 11.1892621,9.22449617 11.2412631,8.99239177 C11.3074463,8.69328817 11.3511745,8.47793358 11.3795387,8.297275 C11.4126303,8.11542001 11.4291761,7.96706462 11.4516312,7.79238812 L11.4729043,7.77683473 L11.4870864,7.75888852 C11.7222731,7.73017457 11.8688216,7.7074427 12.0224612,7.67992516 C12.1713734,7.65838971 12.3273766,7.63087217 12.5696544,7.58540843 L12.5767454,7.60335464 L12.587382,7.62369369 C12.5377446,7.81153075 12.4963801,7.9981714 12.4502883,8.18720488 C12.4065601,8.37504194 12.3640137,8.562879 12.3226492,8.74832323 C12.2304655,9.14313999 12.2009194,9.29388821 12.1784644,9.39797626 C12.1595549,9.49967148 12.1548276,9.5511173 12.1193723,9.758097 L12.0980991,9.77843604 L12.0744623,9.79398943" id="Fill-31" fill="#FFFFFF"></path>
                            <path d="M15.563262,8.44084473 C15.7003558,7.83306621 15.5975354,7.54951599 15.4628054,7.38082156 C15.2571647,7.11641398 14.9037938,7.03027214 14.5303315,7.03027214 C14.308145,7.03027214 13.7810432,7.05539684 13.3662164,7.44542794 C13.0707557,7.72179967 12.925389,8.10345587 12.8462056,8.4635766 C12.7622947,8.83446507 12.6642018,9.50684997 13.2681234,9.7497221 C13.4560364,9.82988186 13.7243147,9.85620298 13.8956819,9.85620298 C14.3424185,9.85620298 14.7962461,9.72938305 15.1354349,9.35849458 C15.4025314,9.06776588 15.5207157,8.62150331 15.563262,8.44084473 M14.5492409,8.39777381 C14.5267859,8.49587979 14.4393296,8.87873241 14.3187816,9.04024835 C14.2360526,9.15510413 14.1367778,9.226889 14.0327757,9.226889 C14.0008659,9.226889 13.8070437,9.226889 13.8023163,8.94094595 C13.8023163,8.79737623 13.827135,8.65141367 13.8637722,8.49229055 C13.9654106,8.0400459 14.0883223,7.65480046 14.3944195,7.65480046 C14.6366973,7.65480046 14.6520613,7.93356502 14.5492409,8.39777381" id="Fill-32" fill="#FFFFFF"></path>
                            <path d="M24.1257126,9.08810493 C24.047711,9.20296071 23.8574343,9.27354916 23.7522503,9.27354916 C23.7203405,9.27354916 23.5300638,9.27354916 23.5253365,8.99119536 C23.5229728,8.84642922 23.5489733,8.70166307 23.5856105,8.54373637 C23.6848852,8.09149172 23.8077969,7.70983553 24.1186215,7.70983553 C24.3159893,7.70983553 24.4140822,7.9072439 24.3868998,8.23147221 C24.3691722,8.30325707 24.3597174,8.37025628 24.340808,8.45400529 C24.3065345,8.5963786 24.2675337,8.73516268 24.2332603,8.87394675 C24.2037142,8.95769576 24.1694408,9.03665911 24.1257126,9.08810493 M25.6680173,7.06137891 C25.1799163,7.15110999 25.0510954,7.17503828 24.5878131,7.23844825 L24.5476304,7.26596578 C24.5452668,7.30544745 24.5381757,7.34133989 24.5322665,7.38201798 C24.4625378,7.26237654 24.3620811,7.15709207 24.1966231,7.09248569 C23.9862551,7.01352234 23.5005178,7.11641398 23.085691,7.50524866 C22.7878666,7.78042398 22.6507729,8.15370527 22.5633165,8.51861167 C22.4829512,8.88112523 22.3848582,9.5511173 22.987598,9.78800736 C23.1790566,9.87055995 23.3539693,9.89448824 23.5253365,9.88491693 C23.7156132,9.87773844 23.882253,9.77843604 24.0429836,9.63965197 C24.025256,9.69707986 24.0134375,9.75570417 23.9980736,9.81432848 L24.025256,9.84782808 C24.4601741,9.82988186 24.5949041,9.82988186 25.0640957,9.83586393 L25.106642,9.79877509 C25.1728252,9.3931906 25.2413721,8.9947846 25.4174667,8.21352599 C25.5025594,7.84263752 25.5900157,7.47294547 25.6810176,7.102057 L25.6680173,7.06137891" id="Fill-33" fill="#FFFFFF"></path>
                            <path d="M18.2176808,9.79398943 C17.825309,9.78800736 17.6964881,9.78800736 17.2379332,9.80954282 L17.2213874,9.77843604 C17.2627519,9.60136671 17.30648,9.42669021 17.3454808,9.2520137 L17.4010275,9.01512365 C17.4813928,8.64184235 17.5676673,8.21113316 17.5783039,8.07713475 C17.5818494,7.9981714 17.6066681,7.80076302 17.3844817,7.80076302 C17.2934798,7.80076302 17.1918413,7.84503035 17.0913847,7.89288693 C17.0405654,8.08909889 16.9282904,8.64662801 16.8739256,8.89907145 C16.7663779,9.43506511 16.7569232,9.49727866 16.7084676,9.758097 L16.6718305,9.79398943 C16.2735495,9.78800736 16.1364557,9.78800736 15.6743552,9.80954282 L15.6530821,9.77365039 C15.7310837,9.45061849 15.8067216,9.1359615 15.8776322,8.81651886 C16.0726362,7.95749331 16.1175462,7.63087217 16.1730929,7.19418091 L16.20973,7.16427055 C16.6600121,7.102057 16.7663779,7.08650362 17.2556608,6.98480839 L17.2934798,7.03027214 L17.2213874,7.30784028 C17.2982071,7.25998371 17.382118,7.2097343 17.464847,7.16427055 C17.6941244,7.0518076 17.9482206,7.01591517 18.0876781,7.01591517 C18.3004098,7.01591517 18.5344146,7.07812872 18.6313257,7.32459008 C18.7246913,7.54712317 18.6644173,7.82110207 18.5415057,8.36188138 L18.4800499,8.63346745 C18.3535927,9.23765673 18.3335014,9.34892327 18.2637726,9.758097 L18.2176808,9.79398943" id="Fill-34" fill="#FFFFFF"></path>
                            <path d="M22.0054867,6.55529562 C21.935758,6.86755978 21.7383903,7.12837812 21.4783849,7.25998371 C21.2644713,7.367661 21.0080115,7.3760359 20.7361876,7.3760359 L20.5600931,7.3760359 L20.5766389,7.30544745 C20.5766389,7.30544745 20.8957364,5.89846411 20.8957364,5.90085693 L20.9028275,5.82907207 L20.9099185,5.77523342 L21.0387394,5.78360832 C21.0387394,5.78360832 21.6993895,5.84342904 21.7135716,5.8482147 C21.9723951,5.94990993 22.0823065,6.21072827 22.0054867,6.55529562 M21.5835689,5.08250948 L21.2621076,5.08968796 C20.4218175,5.10045569 20.087356,5.09686645 19.9455348,5.07652741 C19.9337164,5.13993737 19.9112614,5.25000749 19.9112614,5.25000749 L19.613437,6.66536574 C19.613437,6.66536574 18.8936948,9.66597309 18.8594214,9.80954282 C19.5886183,9.79518584 19.8923519,9.79518584 20.0164454,9.81193565 C20.0459915,9.67075875 20.2173587,8.83326866 20.2185405,8.828483 C20.2185405,8.828483 20.3627253,8.21352599 20.3733619,8.19797261 C20.3733619,8.19797261 20.4135446,8.1309734 20.463182,8.10465228 L20.5317288,8.10465228 C21.161651,8.10465228 21.8766659,8.10465228 22.4380412,7.68590724 C22.8174127,7.40594626 23.0750544,6.97882632 23.1956024,6.46915378 C23.2227847,6.34353027 23.2464216,6.19397847 23.2464216,6.04203384 C23.2464216,5.8482147 23.2074208,5.65439557 23.0951457,5.49527245 C22.8126853,5.09208079 22.2430371,5.08968796 21.5835689,5.08250948" id="Fill-35" fill="#FFFFFF"></path>
                            <path d="M12.5011075,7.38082156 C12.7563855,7.2013594 12.7918408,6.95130879 12.5743817,6.81731037 C12.354559,6.69168686 11.971642,6.72997212 11.7128184,6.91182711 C11.4516312,7.08889645 11.4244488,7.34133989 11.6419078,7.47294547 C11.8593669,7.60335464 12.2422839,7.56028372 12.5011075,7.38082156" id="Fill-36" fill="#FFFFFF"></path>
                            <path d="M28.9039027,7.0601825 L28.8625382,7.01352234 C28.3838919,7.11402115 28.2976174,7.12837812 27.8556082,7.18819884 L27.8213348,7.21691279 C27.8213348,7.22528769 27.8213348,7.234859 27.820153,7.24084108 L27.8177893,7.234859 C27.4880551,8.00295706 27.5010554,7.83545904 27.233959,8.44084473 C27.2304134,8.41093437 27.2304134,8.38939891 27.2304134,8.36427421 L27.1630484,7.0601825 L27.1216839,7.01352234 C26.6205826,7.11402115 26.6064005,7.12837812 26.1454818,7.18819884 L26.1076628,7.21691279 C26.1029355,7.23844825 26.1005718,7.25280522 26.0982081,7.27194785 L26.1029355,7.27792992 C26.1596639,7.57942635 26.1466636,7.51123073 26.2057558,7.98381443 C26.2305745,8.21352599 26.2672116,8.45041605 26.2932121,8.68132403 C26.3416677,9.06417664 26.3676682,9.25440653 26.4208512,9.83586393 C26.1076628,10.3658755 26.0343886,10.5620875 25.7353824,11.0215106 L25.5226507,11.3648816 C25.497832,11.4031668 25.4765588,11.4235059 25.4446491,11.4378628 C25.4127393,11.4522198 25.3654656,11.4593983 25.3051916,11.4593983 L25.144461,11.4593983 L25.0050036,12.0731589 L25.6101071,12.0611947 C25.9622962,12.0611947 26.1856645,11.8841254 26.3050306,11.6603959 L26.6796747,11.0083501 L28.9039027,7.0601825" id="Fill-37" fill="#FFFFFF"></path>
                        </g>
                    </g>
                </g>
            </g>
        </g>
    </g>
</svg>