<?xml version="1.0" encoding="UTF-8"?>
<svg viewBox="0 0 180 132" version="1.1" xmlns="http://www.w3.org/2000/svg" xmlns:xlink="http://www.w3.org/1999/xlink">
    <!-- Generator: Sketch 55.2 (78181) - https://sketchapp.com -->
    <title>noun_card swipe_1340371_000000</title>
    <desc>Created with Sketch.</desc>
    <g id="iFrame" stroke="none" stroke-width="1" fill="none" fill-rule="evenodd">
        <g id="Self-Service---3-Checkout" transform="translate(-388.000000, -351.000000)" fill="#231F20">
            <g id="noun_card-swipe_1340371_000000" transform="translate(388.000000, 351.000000)">
                <path d="M135.378,66.432 C145.98,73.83 159.318,76.14 171.792,72.738 C173.394,72.306 174.33,70.65 173.898,69.054 C173.466,67.458 171.81,66.516 170.214,66.948 C159.462,69.882 147.96,67.89 138.816,61.518 C134.856,58.752 129.81,58.068 125.256,59.664 L122.226,60.732 C120.57,61.314 119.028,62.184 117.672,63.3 C114.162,66.192 109.8,67.872 105.258,68.07 C105.132,68.076 105,68.076 104.868,68.064 C103.212,67.926 101.982,66.462 102.12,64.8 L114.984,53.742 L148.008,42.12 C149.568,41.568 150.39,39.858 149.844,38.292 C149.298,36.726 147.582,35.91 146.016,36.456 L111.93,48.45 L97.728,60.66 C97.08,61.218 96.612,61.968 96.396,62.79 C95.148,67.614 98.046,72.528 102.87,73.776 C103.734,73.998 104.628,74.094 105.522,74.052 C111.366,73.794 116.97,71.646 121.488,67.926 C122.304,67.26 123.228,66.738 124.224,66.384 L127.254,65.316 C129.972,64.368 133.002,64.776 135.378,66.432 L135.378,66.432 Z" id="Path"></path>
                <path d="M169.926,35.346 C171.48,35.94 173.208,35.16 173.802,33.612 C174.396,32.064 173.622,30.33 172.074,29.736 C149.43,21.084 124.2,22.26 102.462,33 L119.16,33 C135.894,28.314 153.696,29.13 169.926,35.346 L169.926,35.346 Z" id="Path"></path>
                <path d="M51,36 C46.026,36 42,40.032 42,45 L42,79.125 C73.932,74.919 106.332,75.6585 138,81.5625 L138,71.625 C136.506,70.809 135.0855,69.7905 133.6875,68.8125 C132.1035,67.7085 130.068,67.614 128.25,68.25 L125.25,69.1875 C124.584,69.4215 123.921,69.8685 123.375,70.3125 C118.359,74.4345 112.0605,76.7685 105.5625,77.0625 C104.3685,77.1165 103.3455,76.9875 102.1875,76.6875 C95.7615,75.0315 91.9065,68.4885 93.5625,62.0625 C93.9285,60.6405 94.6965,59.2665 95.8125,58.3125 L110.4375,45.75 L134.0625,37.5 C132.5925,36.516 130.776,36 129,36 L51,36 Z M57.5625,51.9375 L60.375,51.9375 L60.375,55.875 L54,55.875 L54,55.5 C54,53.568 55.6305,51.9375 57.5625,51.9375 Z M61.6875,51.9375 L67.3125,51.9375 L67.3125,66 L61.6875,66 L61.6875,51.9375 Z M68.625,51.9375 L71.4375,51.9375 C73.3695,51.9375 75,53.568 75,55.5 L75,55.875 L68.625,55.875 L68.625,51.9375 Z M54,57.375 L60.375,57.375 L60.375,60.5625 L54,60.5625 L54,57.375 Z M68.625,57.375 L75,57.375 L75,60.5625 L68.625,60.5625 L68.625,57.375 Z M54,62.0625 L60.375,62.0625 L60.375,66 L57.5625,66 C55.6245,66 54,64.3695 54,62.4375 L54,62.0625 Z M68.625,62.0625 L75,62.0625 L75,62.4375 C75,64.3695 73.3695,66 71.4375,66 L68.625,66 L68.625,62.0625 Z" id="Shape" fill-rule="nonzero"></path>
                <path d="M135.408,93.324 C104.904,87.684 73.698,86.91 42.948,91.02 C44.472,94.074 47.592,96 51,96 L129,96 C131.406,96 133.716,95.034 135.408,93.324 Z" id="Path"></path>
                <path d="M12.906,93.564 C63.954,81.36 117.33,82.902 167.592,98.034 C171.396,99.18 174,102.678 174,106.65 L174,132 L180,132 L180,106.65 C180,100.032 175.662,94.2 169.326,92.286 C118.05,76.848 63.594,75.27 11.514,87.72 C4.758,89.34 0,95.376 0,102.318 L0,132 L6,132 L6,102.318 C6,98.148 8.856,94.53 12.906,93.564 Z" id="Path"></path>
                <polygon id="Path" points="87 30 82.758 25.758 90.516 18 48 18 48 12 90.516 12 82.758 4.242 87 0 102 15"></polygon>
            </g>
        </g>
    </g>
</svg>